<svg xmlns="http://www.w3.org/2000/svg" viewBox="0 0 100 100"><defs><style>.a{fill:#fff;}.b{fill:none;stroke:#fff;stroke-miterlimit:10;stroke-width:3px;}</style></defs><title>earth</title><path class="a" d="M50.63.69v3h-.15A46.6,46.6,0,0,1,97.29,48.6,47,47,0,0,1,52.1,97.32c-.61,0-1.24,0-1.85,0a47,47,0,0,1-1.78-94c.61,0,1.38,0,2,0l.15-3m-.31,0c-.65,0-1.3,0-2,0a50,50,0,0,0,1.88,100c.65,0,1.3,0,2,0A50,50,0,0,0,50.32.31Z" transform="translate(-0.28 -0.31)"/><path class="a" d="M84.84,56.87a4.74,4.74,0,0,1,.29,2.07c-.41.85-2.25,1.76-2.42,2.71-.3,1.61-3.13,3.07-3.91,4.62-.94,1.88-.1,3.63-.94,5.55a23,23,0,0,1-1.46,3.72,4,4,0,0,0-.86,2.91,19,19,0,0,1-.16,2.16,36.44,36.44,0,0,0-2.08,3.66c-.72,1.73-2.81,5.32-4.49,6.26a14.28,14.28,0,0,1-4.35,1.33c-4.13.63-4.29-1-5.91-4.92-1.47-3.53-4.19-6.09-3-9.83,1-3.19-2.68-7.23-3.15-10.55-.94,0-1.68-.52-2.55-.71-1.63-.35-2.29,0-3.71-.74s-3.49-.89-4.75-1.91A10.17,10.17,0,0,1,39,59.6a16.16,16.16,0,0,1-.24-4.41A39.15,39.15,0,0,1,39,50c.33-3.17,3.71-4.48,4-4.58,2-.75,1.42-2.18,3.54-2.13,3,.08,5.59.67,8.66.67,1.18.75,1,3.61,2.27,3.69,1,.06,3.39-1,4.57-1.2,2-.27,5.91.1,7.66-.49,1.25-.42,3.06-1.22,4.51-.44s1.17,2.86,1.89,4.26a24.48,24.48,0,0,0,2,2.55c.79,1.11,1.6,2.87,2.94,3.5C82,56.28,84.43,55.62,84.84,56.87Z" transform="translate(-0.28 -0.31)"/><path class="b" d="M55.21,43.94c-3.07,0-5.67-.59-8.66-.67-2.12,0-1.54,1.38-3.54,2.13-.29.1-3.67,1.41-4,4.58a39.15,39.15,0,0,0-.21,5.21A16.16,16.16,0,0,0,39,59.6a10.17,10.17,0,0,0,2.35,3.6c1.26,1,3.25,1.11,4.75,1.91s2.08.39,3.71.74c.87.19,1.61.76,2.55.71.47,3.32,4.16,7.36,3.15,10.55-1.19,3.74,1.53,6.3,3,9.83,1.62,3.9,1.78,5.55,5.91,4.92a14.28,14.28,0,0,0,4.35-1.33c1.68-.94,3.77-4.53,4.49-6.26a36.44,36.44,0,0,1,2.08-3.66,19,19,0,0,0,.16-2.16,4,4,0,0,1,.86-2.91,23,23,0,0,0,1.46-3.72c.84-1.92,0-3.67.94-5.55.78-1.55,3.61-3,3.91-4.62.17-1,2-1.86,2.42-2.71a4.74,4.74,0,0,0-.29-2.07c-.41-1.25-2.79-.59-3.81-1.06-1.34-.63-2.15-2.39-2.94-3.5a24.48,24.48,0,0,1-2-2.55c-.72-1.4-.31-3.41-1.89-4.26s-3.26,0-4.51.44c-1.75.59-5.65.22-7.66.49-1.18.16-3.57,1.26-4.57,1.2C56.16,47.55,56.39,44.69,55.21,43.94Z" transform="translate(-0.28 -0.31)"/><path class="a" d="M42.18,34.37a7.22,7.22,0,0,1-2.21,2,1.53,1.53,0,0,0-.54,2.05l.77,2.12a1.51,1.51,0,0,0,2.51.66c1.57-1.57,3.77-.2,4.65-2.91a1.51,1.51,0,0,0-1.45-1.9l-1,.05.76,2.8a9.77,9.77,0,0,0,3-2.79,1.51,1.51,0,0,0-1.3-2.26,4.91,4.91,0,0,0-2.14.37c-1.5.54-1.4,3,.4,2.95s4.2.1,4.82-2A15.49,15.49,0,0,0,50.28,31c-.6-2.54-2-.82-1.84-.63,1.4,2,2.61.23,3.9-.37,2.37-1.1,2.76-.34,4.83-.08a10.88,10.88,0,0,0,4.7-1.09c2.41-1,4.54-2.8,4.27-5.66a7.09,7.09,0,0,0-.67-1.48c-1-2.78-.34-1.7-.47-3.7-.09-1.45.1-2.44-.9-3.68-1.53-1.89-2.6-1.43-4.12-.45a14.93,14.93,0,0,0-6.55,8.76l2.89.8c.35-1.84,3.72-13,7.49-9.58.67.61.81,3.3.54,4.21a1.51,1.51,0,0,0,1,1.85c5.56,1,6-3.15,8.79-7.12A1.5,1.5,0,0,0,74,10.95,8.52,8.52,0,0,1,70.8,6.48L69,8.32a18.28,18.28,0,0,1,4.73,1.94V7.67l-.87.54a1.55,1.55,0,0,0-.69,1.69c-.37-1.59-4.14,5.16-4.38,5.78-.67,1.74-.79,3,.9,4.09s3.15-1.57,1.51-2.59c-.49-.3,5.3-6.12,4.85-8.07l-.69,1.69.87-.54a1.52,1.52,0,0,0,0-2.59,20.83,20.83,0,0,0-5.45-2.24c-1-.26-2.26.73-1.85,1.85a13.19,13.19,0,0,0,3.92,5.79l-.23-1.82c-1.34,1.92-2.86,6.2-5.41,5.74l1,1.85c1-3.52-.06-8.58-4.66-8.86-5.48-.33-8.38,8.58-9.15,12.64-.35,1.87,2.36,2.68,2.89.8.27-1,3.14-6.48,5.1-6.39.94,0-.07,2.33.14,3.43.36,1.92,2.23,3.22.24,5.09-1.66,1.56-3.82,1-5.61.67a5.84,5.84,0,0,0-3.24-.13c-.65.2-3.47,2.58-2.14,2.31A10.9,10.9,0,0,0,49,27.45a3.19,3.19,0,0,0-2.16,1,1.47,1.47,0,0,0-.39,1.46,14.85,14.85,0,0,1,.78,3c.26,2.7.28,1.5-1.71,1.6l.4,2.95,1.34-.27L46,34.95l-1.88,1.72a1.51,1.51,0,0,0,.76,2.8l1-.05-1.45-1.9a21.7,21.7,0,0,0-3.87,1.59l2.51.66A6.3,6.3,0,0,0,42,36.92L41.48,39a12.8,12.8,0,0,0,2.82-2.48c1.24-1.46-.87-3.6-2.12-2.12Z" transform="translate(-0.28 -0.31)"/><path class="a" d="M43.5,40.19a1.5,1.5,0,0,0,0-3,1.5,1.5,0,0,0,0,3Z" transform="translate(-0.28 -0.31)"/><path class="a" d="M43,39.19a1.5,1.5,0,0,0,0-3,1.5,1.5,0,0,0,0,3Z" transform="translate(-0.28 -0.31)"/><path class="a" d="M45.23,24.16l-.44.48h1.06a7.94,7.94,0,0,1-1.35-1.9l-.65,1.13c2.4.25,2.86-3.21,2.69-4.9l-1.47.2a16,16,0,0,1,.66,2.1c.09.37.15.73.21,1.11s0,.88.26.79l.73.19v0a.76.76,0,0,0-1.4-.38,1.45,1.45,0,0,0,2.09,2l-1.13-.65a1.54,1.54,0,0,1-.39,1l1.18-.15c-.21-.26,0-.94-.18-1.28a1.39,1.39,0,0,0-.63-.7c-.75-.4-1.2.08-1.68.58l.73-.19c-.43-.08-.68-.31-1.13-.28a9.63,9.63,0,0,1-1,.36v1.3l0,0-.75-.75,0,.68a.76.76,0,0,0,.95.72A2.13,2.13,0,0,0,45,24.47c.52-.82-.78-1.57-1.3-.76l-.61.37.95.72,0-.68a.76.76,0,0,0-.75-.75,1.16,1.16,0,0,0-.71.22.76.76,0,0,0,0,1.3A1.47,1.47,0,0,0,44,25a2.47,2.47,0,0,1,.7-.13c.23,0,.46.16.7.11a1.57,1.57,0,0,0,.43-.21c.47-.23.19-.81-.14.1-.16.43.25,1,.49,1.3A.76.76,0,0,0,47.38,26a3.3,3.3,0,0,0,.6-1.76.75.75,0,0,0-1.13-.65l0,.09-1.4-.38a1.47,1.47,0,0,0,.44,1.09.74.74,0,0,0,.73.19c2-.59.39-4.63-.08-5.85-.28-.72-1.56-.71-1.47.2.07.74.15,3.54-1.19,3.4-.6-.06-.88.67-.65,1.13a9.33,9.33,0,0,0,1.59,2.2.76.76,0,0,0,1.06,0l.44-.48c.65-.71-.4-1.77-1.06-1.06Z" transform="translate(-0.28 -0.31)"/><path class="a" d="M49.12,34.13c-1-.89-1-.86-2.3-.67l.85,1.1a11.78,11.78,0,0,0,1.12-3.36L47.31,31c-.17,1.53-.33,4.59-1.84,5.66A.75.75,0,0,0,46,38l1.67.11a.73.73,0,0,0,.73-.19L52,33.76l-1.25-.33-.07.17a.76.76,0,0,0,.15,1.18c2.69,1.83,4.92.37,7-1.64l-1.25-.33a13.52,13.52,0,0,0,2.17,5c.89,1.22,2.51,1.89,1.28,3.21l1.18.91,2.92-2.43a.76.76,0,0,0,0-1.45L62,32.79V31.34l-2.18.37c-.7.12-.65,1-.18,1.37,2.52,1.78,6.81,2.06,7.6,5.14a.76.76,0,0,0,1.45,0c0-.11-.1-2.7-.52-2.17,1-1.22,5.32,2.21,5.84,2.73a18.18,18.18,0,0,0,2.19,2.16c.91.72,1.38-.27,1.44,1.27,0,.52-2.25,2.23-2,2.2l.58,1.37c2.26-1,4.23,2.19,5.48,3.39,2.48,2.39,4,2.16,3.51,7-.07.69.84.93,1.28.53,1.64-1.5,2.93-3.9,4.13-5.76s3.21-5.74,2.75-8.1c-.21-1.1-.39-1-1.14-1.56-.53-.4-1.61-.57-2.22-1-1.16-.81-1.58-1.66-3-2.29v1.3c1.37-.71,4.42.88,6.14.66a4.24,4.24,0,0,0,3.46-2.14c.52-.82-.78-1.57-1.3-.76-3.52,5.52-3.43.15-5.53.13a6.33,6.33,0,0,0-3.54.82.75.75,0,0,0,0,1.3c1.14.49,5,3.56,5.34,5.21.49,2.32-4.14,9.31-6.14,11.15l1.28.53c.47-4.8-1.94-6.21-5-9.16-1.86-1.81-3.51-3.73-6.25-2.54-.85.37-.18,1.48.58,1.37,1.74-.25,3.25-2.52,4.08-4A.77.77,0,0,0,80,41c-1.27-1.4-3.07-1.82-4.5-3.22-.32-.31-.41-1-.87-1.35-1.82-1.25-6-3.08-8.07-1.87a.78.78,0,0,0-.34.85c0,.06.9,3.2,1.08,2.45H68.7c-1.31-5.07-3.85-2.89-8.29-6l-.18,1.37,2.18-.37c.79-.13.64-1.23,0-1.45-1.88-.64-3.65-.19-4,2-.45,3,2.94,5.41,5.36,6.11V38A5.32,5.32,0,0,0,60,41.14c-.36.73.57,1.57,1.18.91a12.83,12.83,0,0,1,1.5-1.49.75.75,0,0,0,0-1.06,12.31,12.31,0,0,1-4.57-7.09.76.76,0,0,0-1.25-.33c-1.21,1.15-4,2.36-4.54,2,.13.1-.12-1.23-.08-1A.75.75,0,0,0,51,32.7c-1.7,2-2.78,3.33-5.31,3.87l.58,1.37c2.21-1.56,2.31-4.43,2.58-7,.09-.84-1.28-1-1.47-.2l-1,3a.76.76,0,0,0,.85,1.1l.84.29c.72.64,1.78-.41,1.06-1.06Z" transform="translate(-0.28 -0.31)"/><path class="a" d="M67.57,34.23c1.66-2,4-.14,6.06-.39,1.44-.18,2.39-1.18,3.47-2.06,1.35-1.1,1.93-2.14.24-3.28-2.69-1.8-5.94-1.49-8.83-.41-1.42.53-1.71,1.33-2.65,2.52s-.55,2.33-1.27,3.43c-.53.81.77,1.57,1.3.76.83-1.28.68-2.74,1.78-3.95a5.46,5.46,0,0,1,3.42-1.92,7.46,7.46,0,0,1,2.74-.15c.4.06,2.66.55,2.76,1S75.47,31.31,75,31.57c-1.77,1-2.93.53-4.73.3a3.78,3.78,0,0,0-3.79,1.3c-.62.74.44,1.8,1.06,1.06Z" transform="translate(-0.28 -0.31)"/><path class="a" d="M78,28.65,78,26.92l.5-.26c.21-.26.53-.43.75-.7A3.73,3.73,0,0,0,80,24.35l-1.37.18a5.17,5.17,0,0,0,1.58,1.63,7.46,7.46,0,0,1,1.47,1c1,1.21.12,2.28-.08,3.41A5.83,5.83,0,0,0,83,35.46l.53-1.28c-.66.06-2.15-2.46-2.8-2.9-1.11-.76-2.82-.69-3.53-2-.47-.85-1.76-.09-1.3.76,1,1.87,3.25,1.62,4.62,3.09.87.94,1.5,2.67,3,2.54a.76.76,0,0,0,.53-1.28c-1.3-1.53-1.2-3-.68-4.77a3.55,3.55,0,0,0,.13-2.35c-.64-1.72-2.78-2-3.66-3.51a.76.76,0,0,0-1.37.18c-.4,1.69-2.21,1.48-2.48,3.09A3.37,3.37,0,0,0,77,29.71c.61.75,1.66-.32,1.06-1.06Z" transform="translate(-0.28 -0.31)"/><path class="a" d="M70.89,18.6l-.36.32a3,3,0,0,0-.77,2.92l.11.47a3.05,3.05,0,0,0,3.69,2.1c3.53-.84,4.77-4.92,1.87-7.34a3.06,3.06,0,0,0-4.24,0c-3.76,4,.4,9.59,5.39,7.52,2.14-.89,4.33-3.59,4.27-6-.07-2.87-2.44-3.8-4.66-4.74l1.49,2.59a21.27,21.27,0,0,1,0-3.77l-4.51,2.59a25.31,25.31,0,0,1,4.91,3.28c1.35,1.37,1.81,3.25,2.93,4.77,2,2.79,4.87,4.86,7,7.7l1.56,2.09q1-.79.05.27c-.09,1.12-1,1.6-.8,3A3.82,3.82,0,0,0,93,39.53c2.67-.19,4.45-4.24,1.51-5.59-2-.91-4.23-1.84-5.5-3.73-.88-1.32-1.06-3.15-1.88-4.56-1.36-2.34-3.69-6.26-6.06-7.72-3.92-2.41-11.1,3.62-9.88,7.83a3,3,0,0,0,5,1.32l-3-1.41L74,22.77l-.34.33,2.92-.77c-1.54-.27-6.85-1.69-7.17-3.47L65,22.25c-1.11-.6-1.74,2.87-1.83,3.34-.53,2.64,3,5.45,5,2.92l1-.78-2.59-4.51-.4.88c-.92,2,.68,5.54,3.39,4.41l1.86-.21c3.8,1.06,5.12-4.42,1.6-5.79-3-1.17-6.39-2-9.28,0-2.45,1.66-2.72,4.53-5,6.4-1.88,1.53-.6,4.35,1.32,5a5.64,5.64,0,0,0,3.63.11c3.53-.79,2.36-5.57-.8-5.89-4.12-.42-9.2-1.75-13.28-.92a3,3,0,0,0-2.2,2.89c0,2.56,1.62,3.38,3.78,4.41,3.46,1.67,6.51-3.51,3-5.18l-.81.77L51.27,33c3.27-.67,8.38.8,11.68,1.13l-.8-5.89-.44-.11,1.32,5c1.18-1,2.75-2,3.44-3.38A3.9,3.9,0,0,0,67,27.82a5.69,5.69,0,0,1,4.54.46l1.6-5.79a7.06,7.06,0,0,0-5.05.21l3.39,4.41.4-.88c.84-1.87-.09-4.72-2.59-4.51A6.62,6.62,0,0,0,64,24.26l5,2.92c.79-4,4.08-7.41-.93-10.12a3,3,0,0,0-4.41,3.39c.57,3.19,2.9,4.74,5.78,5.86,2.35.91,6.21,3,8.51,1,4.08-3.51-2.17-8.45-6-4.49l5,1.32c.54,1.87.68-.45,1.58-.12C79,24.21,79.7,25.6,80,26a27.48,27.48,0,0,1,3.11,5.71c1.68,3.74,4.75,5.78,8.39,7.45L93,33.53q1.14,4.48,2.43,2.2a3,3,0,0,0,.41-1.51,5,5,0,0,0-.34-2.86c-1-2.93-4.33-6.7-6.57-8.92-1.16-1.15-2.42-1.82-3.38-3.23-.78-1.14-1.2-2.46-2-3.58-1.89-2.49-4.67-4-7.29-5.58a3,3,0,0,0-4.51,2.59,21.27,21.27,0,0,0,0,3.77A3,3,0,0,0,73.16,19c.41.17,3.4,1.11,2.26,2.31H71.18L72,18.62l3.69,2.1-.11-.47-.77,2.92.36-.32C78,20.26,73.76,16,70.89,18.6Z" transform="translate(-0.28 -0.31)"/><path class="a" d="M85.75,31.21a11.59,11.59,0,0,0-4.2,1.25C79,33.79,80.09,38.31,83.07,38a4.22,4.22,0,0,0,3.54-2l-4.71.61-.28-.46.88-2.12-.45.37,2.12-.88A24,24,0,0,1,81,32.67c-.6-.16-3-1.42-1.7-.28l.88,2.12v-.42l-1.49,2.59L79,36.5l-3-5.18c.32-.22,1-.23.16-.14a3.47,3.47,0,0,0-1.82.64,3.74,3.74,0,0,0-1.7,2.84c-.33,2.92,2.45,4.78,4.32,6.57,2,2,4.81.37,5.12-2.12a5.45,5.45,0,0,0-1.76-4.7c-2.73-2.74-7,1.49-4.24,4.24a12.43,12.43,0,0,0,6.51,3.56l-1.79-1.38c1.85,3.42,7.26,4.84,8.49.06l-5,1.32c-.69-.85-.31.09-.16.86a5.32,5.32,0,0,0,.43,1.43c.62,1.26,2.11,1.43.83,2.21l4.1,1.08a38.68,38.68,0,0,0-7.6-7.57c-3.08-2.33-6.07,2.88-3,5.18a28.44,28.44,0,0,1,5.45,5.42,3.07,3.07,0,0,0,4.1,1.08,7,7,0,0,0,3.21-8,4.42,4.42,0,0,0-1.16-2c-1.09-.82-.31.51-.49-.21-.38-1.53-.39-2.38-1.45-3.69-1.45-1.79-4.49-.7-5,1.32.38-1.48,3.76.63,2.24-1.8a3,3,0,0,0-1.56-1.08c-1.51-.58-2.65-.79-3.86-2l-4.24,4.24v.46L81.18,37c-.43-.41-2.56-2.37-2.56-2.32l-.88,2.12.52-.48-2.12.88A4.92,4.92,0,0,0,79,36.5c3.11-2.19.38-7.13-3-5.18l-.32.18a3,3,0,0,0-1.49,2.59,3.67,3.67,0,0,0,2.52,3.59,24.55,24.55,0,0,0,6.94,1.82c4.32.27,4.76-4.45,2.5-7.1-1.39-1.63-3.64-.79-4.71.61l-.36.47L83.66,32l-.59.05,1.51,5.59,1.17-.43c3.78-.48,3.83-6.48,0-6Z" transform="translate(-0.28 -0.31)"/><path class="a" d="M72.14,33.14q.14-.19,0,0l.09-.07q-.23.12,0,0l-.2.06q-.16,0,.06,0h-.2q-.17,0,.06,0l-.26-.08a1.51,1.51,0,0,0-1.85,1,1.54,1.54,0,0,0,1,1.85,3.46,3.46,0,0,0,3.88-1.35,1.51,1.51,0,0,0-.54-2.05,1.54,1.54,0,0,0-2.05.54Z" transform="translate(-0.28 -0.31)"/><path class="a" d="M71.06,33.12l-.75-.62a1.54,1.54,0,0,0-2.12,0,1.51,1.51,0,0,0,0,2.12l.75.62a1.54,1.54,0,0,0,2.12,0,1.51,1.51,0,0,0,0-2.12Z" transform="translate(-0.28 -0.31)"/><path class="a" d="M56.94,32.63l-.12.13a1.5,1.5,0,0,0,2.12,2.12l.13-.12a1.5,1.5,0,0,0-2.12-2.12Z" transform="translate(-0.28 -0.31)"/><path class="a" d="M85,50.09l.53,2a1.5,1.5,0,0,0,2.89-.8l-.53-2a1.5,1.5,0,1,0-2.89.8Z" transform="translate(-0.28 -0.31)"/><path class="a" d="M85.25,52.94v.25a1.5,1.5,0,0,0,3,0v-.25a1.5,1.5,0,0,0-3,0Z" transform="translate(-0.28 -0.31)"/><path class="a" d="M86.63,38.35a.43.43,0,0,1-.2-.26,1.55,1.55,0,0,0,1.85,1,1.51,1.51,0,0,0,1-1.85,3.36,3.36,0,0,0-1.18-1.53,1.51,1.51,0,0,0-2.05.54,1.54,1.54,0,0,0,.54,2.05Z" transform="translate(-0.28 -0.31)"/><path class="a" d="M83.09,32c.32-.06-.19-.07.13,0-.05,0-.43-.06-.15,0L83,31.86q.18.15,0,0l.07.09a1.49,1.49,0,0,1-.13-.24,1.51,1.51,0,0,0-2.05-.54,1.53,1.53,0,0,0-.54,2.05,3.24,3.24,0,0,0,3.59,1.65,1.51,1.51,0,0,0,1-1.85,1.53,1.53,0,0,0-1.85-1Z" transform="translate(-0.28 -0.31)"/><path class="a" d="M75.5,37.44v.5a1.5,1.5,0,0,0,3,0v-.5a1.5,1.5,0,0,0-3,0Z" transform="translate(-0.28 -0.31)"/><path class="a" d="M67.5,18.67a6.74,6.74,0,0,0,2.87-.91c.87-.52,1.08-2.13,0-2.59a5.55,5.55,0,0,0-2.56-.52l1.45,1.9a3,3,0,0,0-.69-2.93,1.51,1.51,0,0,0-2.12,0,1.53,1.53,0,0,0,0,2.12.25.25,0,0,1-.09-.18q.06.24,0,.08t0,.09q0-.24,0,0a1.51,1.51,0,0,0,1.45,1.9,4.58,4.58,0,0,1,.64,0l.21.06s.33.11.19,0V15.17a2.9,2.9,0,0,1-.66.33l-.42.12s-.47.07-.28.05a1.53,1.53,0,0,0-1.5,1.5,1.52,1.52,0,0,0,1.5,1.5Z" transform="translate(-0.28 -0.31)"/><path class="a" d="M62,10.94a1.5,1.5,0,0,0,0-3,1.5,1.5,0,0,0,0,3Z" transform="translate(-0.28 -0.31)"/><path class="a" d="M64,12.44l.4,0c1.49.16,2-2.14.76-2.8s-2.68-1.09-4-.26a1.52,1.52,0,0,0,.36,2.74l1.27.42V9.69a3.17,3.17,0,0,1-1.55.28,1.55,1.55,0,0,0-1.85,1,1.51,1.51,0,0,0,1,1.85,6.14,6.14,0,0,0,3.15-.28,1.51,1.51,0,0,0,0-2.89l-1.27-.42L62.72,12q.35-.2,0-.06.1-.08.24,0a5,5,0,0,1,.68.28l.76-2.8-.4,0a1.51,1.51,0,0,0-1.5,1.5,1.53,1.53,0,0,0,1.5,1.5Z" transform="translate(-0.28 -0.31)"/><path class="a" d="M33.25,18.44A2.19,2.19,0,0,0,35.61,17a1.59,1.59,0,0,0-2.34-1.75,1.5,1.5,0,1,0,1.51,2.59l0,0H33.32l.06,0-.54-.54,0,.06V15.88l0,.09.54-.54c-.17.12.21,0-.12,0a1.51,1.51,0,0,0-1.5,1.5,1.54,1.54,0,0,0,1.5,1.5Z" transform="translate(-0.28 -0.31)"/><path class="a" d="M26.28,15.69c.7-1.52,2.33-1.29,3.66-1.8a15,15,0,0,0,2.89-1.39,10.92,10.92,0,0,0,3.52-4.44,1.52,1.52,0,0,0-1.3-2.26c-2.91-.31-6.73-.44-8.48,2.36A1.51,1.51,0,0,0,26.81,10a2,2,0,0,0,1.65.59c.84-.1,1.44-1.19,2.26-1L30.05,7c-1.22,1.28-2.24,1.05-3.61,1.78-.37.2-.63.72-1,.89S24.23,9.89,24,10c-3.25,1.2-1.81,3.66-2.78,6.27a1.51,1.51,0,0,0,2.51,1.46c1-1.25,3.06-2,4.44-2.85a1.5,1.5,0,0,0-1.51-2.59c-1.65,1-3.81,1.83-5,3.32L24.12,17a8.15,8.15,0,0,0,.49-1.79,9.28,9.28,0,0,1,0-1.86c.47-.81,2.15-.86,2.94-1.33,1.61-1,3.21-1.44,4.61-2.91a1.51,1.51,0,0,0-.66-2.51,4,4,0,0,0-2.22.05,2.47,2.47,0,0,0-.78.37c-.87.75-.56,0,.42.79l.23,1.82c1-1.54,4.43-1,5.89-.87l-1.3-2.26A8.33,8.33,0,0,1,28,11.37c-2,.47-3.4.78-4.33,2.8-.8,1.74,1.79,3.27,2.59,1.51Z" transform="translate(-0.28 -0.31)"/><path class="a" d="M4.25,66.44h.13a1.5,1.5,0,0,0,0-3H4.25a1.5,1.5,0,0,0,0,3Z" transform="translate(-0.28 -0.31)"/><path class="a" d="M3.77,65.05c.81,2.23,2.26,3.09,4,4.59,2,1.75,2.93,3.66,5.33,4.86.33.17,3.21.93,3.29,1.06.47.77-.54,3.87-.55,4.83a7.8,7.8,0,0,0,.42,3.15c.22.54,1.82,2.25,1.73,2.77A1.55,1.55,0,0,0,18.65,88l.68.35c1.46.75,3.11-1.14,1.82-2.36-2.23-2.11-4.26-4.13-5.19-7.15A26.6,26.6,0,0,0,14.28,74L12.23,76l2.18,2.35,2.2-1.69a36.8,36.8,0,0,1-7.84-7.56c-1-1.34-3.32.42-2.36,1.82,1.27,1.86,4.55,5.17,5,7.43l1.45-1.9-.19,0,1.5,1.5V77.8c.13-1.93-2.87-1.92-3,0v.14a1.53,1.53,0,0,0,1.5,1.5l.19,0c1.05.12,1.6-1,1.45-1.9-.48-2.65-3.78-6-5.26-8.15L6.66,71.23a39.64,39.64,0,0,0,8.44,8c1.09.77,2.55-.51,2.2-1.69a5.74,5.74,0,0,0-3.56-4.14,1.51,1.51,0,0,0-2.05,2.05c1.17,2.21,1.27,4.76,2.46,7A23.87,23.87,0,0,0,19,88.11l1.82-2.36-.68-.35.69,1.69c.5-2.78-1.92-3.84-2-6.71-.09-1.88,1.25-4.44.28-6.18-1.1-2-4.9-2.1-6.54-3.71-.78-.77-1.29-1.79-2.15-2.57-1.33-1.21-3.06-1.82-3.74-3.67s-3.55-1-2.89.8Z" transform="translate(-0.28 -0.31)"/><path class="a" d="M5.91,34.81c2.19-.52,2.45-2.15,4-3.56a34.33,34.33,0,0,0,3.88-3.56c.76-.91,1.58-1.56,2.23-2.5,1.28-1.86.27-6.35,1.79-7.56L15.71,15.5c-2.66,2.86-5.18,4.29-6,8.46-.3,1.6,1.85,2.72,2.74,1.16l2.09-3.66-2.8-.76c-.19,1.44-2.51,3.37-3.35,4.45s-1.78,2.39-2.61,3.62c-.95,1.4,1.23,3.1,2.36,1.82l.63-.72c1.27-1.45-.84-3.58-2.12-2.12l-.63.72,2.36,1.82c2-2.95,5.89-5.94,6.37-9.58.2-1.53-2.11-2-2.8-.76L9.9,23.61l2.74,1.16c.65-3.53,3-4.76,5.19-7.14a1.5,1.5,0,0,0-2.12-2.12,4.06,4.06,0,0,0-1.6,2.91c-.28,2.19-.08,3.84-1,6l1-1c-2,.56-2.51,2.5-3.91,3.85-.87.84-2,1.35-2.82,2.17-.71.67-1.4,2.33-2.36,2.55-1.88.44-1.08,3.34.8,2.89Z" transform="translate(-0.28 -0.31)"/><path class="a" d="M94.71,40a7.07,7.07,0,0,0,1.19,2.37A3.63,3.63,0,0,1,97,44.82a1.51,1.51,0,0,0,1.5,1.5,1.53,1.53,0,0,0,1.5-1.5,4.93,4.93,0,0,0-.89-3.17,9,9,0,0,1-1.48-2.5c-.47-1.87-3.37-1.08-2.89.8Z" transform="translate(-0.28 -0.31)"/><path class="a" d="M81.09,81.66Q82.72,77.6,84,73.4c.57-1.9-2.18-2.52-2.89-.8l-1.94,4.68c-.5,1.21-1.1,2.11-.55,3.38a1.46,1.46,0,0,0,1.3.74c2.5-.06,3.71-4.21,4.11-6.19s-2.51-2.69-2.89-.8a8.17,8.17,0,0,1-2,4.42l1.06-.44h-.24l1.3.74-.09-.21.15,1.16A50.38,50.38,0,0,1,84,73.4l-2.89-.8q-1.26,4.2-2.88,8.26c-.72,1.79,2.18,2.57,2.89.8Z" transform="translate(-0.28 -0.31)"/></svg>