<svg xmlns="http://www.w3.org/2000/svg" viewBox="0 0 100 100"><defs><style>.a{fill:#fff;}</style></defs><title>mercury</title><path class="a" d="M51.81,99.79a47.64,47.64,0,0,1-25-7.06c7.51-4.35,14.6-9.24,19.72-12.87L47.58,81c3.06-2.87,5.75-5.4,7.91-7.37l-1.62,3,3.51,1.92c.88-1.61,1.75-3.19,2.52-4.57-.29,2.53-.72,5.77-1.19,9.36l2.39.31c.07,1.34.14,2.71.19,3.95.21,4.5.4,8.74.79,10.93l1.09-.08A48,48,0,0,1,51.81,99.79Zm2-23.13,3.5,1.93-3.5-1.94Zm12.21,21c0-1.8,0-4.66,0-7.66,0-2.16,0-4.82-.05-7.19l1.15-.11c-.28-3-.53-5.73-.71-8l.54,1.14,3.62-1.7c-.77-1.63-1.51-3.22-2.09-4.52,1.85,1.2,4.41,3,7.18,4.93l1.66-2.37c1.21.42,2.49.88,3.62,1.29a78.33,78.33,0,0,0,9.7,3.09l2.06.38A48.22,48.22,0,0,1,66.06,97.63Zm-43-7.43A48.18,48.18,0,0,1,6,66l3.81-3.14,1.84-1.54c1.11-.93,2.82-2.37,4.13-3.41l.22.2-.24.68,1.45.51c-.09,1.07-.22,2.32-.33,3.44-.2,2-.43,4.24-.59,6.38l4,.43c.19-1.33.38-2.72.56-4.07s.36-2.65.54-3.9a66.36,66.36,0,0,0,6,13.1l3.46-2A98.35,98.35,0,0,1,25.42,60.3l1.25-.71,1,.25c1.41,1.15,3,2.51,4.76,3.95l2.07-2.35c3.28.7,6.43,1.3,9.16,1.82l.73.14v2.15H52l-4.48,1.66,1.32,3.57h0l-1.3-3.58h0l1.31,3.58-6.39,4.28,1.12,1.7C37.81,80.91,30.23,86,23.05,90.2ZM91.76,72.75,87.63,71c-2.46-1-6.16-2.54-9-3.8L79,65.71c-2.1-.57-4.09-1.12-5.74-1.59,2-.32,4.43-.67,7-1l-.42-2.91c1.74-.72,3.72-1.51,5.6-2.26,3.46-1.38,7.38-2.94,11-4.52l-1.46-3.72-7.23,2.58c-2.42.87-5.08,1.82-7.45,2.65l-.66-1.4L76.58,55l3-2.5L79,51.88C83.62,47,90.47,39.21,95.16,31.17a48,48,0,0,1-.73,42.71ZM5,62.49A48,48,0,0,1,4.28,45.1L7,46.48l3.48,1.78-.23.57L13.8,50.3l-.09,1.94-1.83,1,.7,1.34c-.56.53-1.18,1.11-1.69,1.57a41.47,41.47,0,0,0-4,3.95Zm42.9-3.13a138.08,138.08,0,0,1-17.81-3l-1.53-1.39.73-1.26-.47-.27h.37a85.29,85.29,0,0,0,14.6-1.52l-.64-3.94c-6,.59-11.09.92-14.44.92H28l-.66-2.07.6-.63L27,45.29a72,72,0,0,1,7.77-9.84l-.66-.64c.65-1.51,1.27-3,1.82-4.26.4-.95.82-2,1.2-2.82l1.1.22a65.19,65.19,0,0,0,5.34,10.78l2.74-1.56c4.54,7.3,7.42,12.49,9,15.78l-.92-.9-2.82,2.84c.54.54,1,1,1.48,1.45.84.82,1.95,1.91,2.92,2.91-1.92-.49-4.47-1.23-7.49-2.1Zm13.88-6.53c-.5-1.41-1-3-1.62-4.69l-1.34.46-.38-.67c-3.28-5.73-8.78-15.31-15-22.64l-1.12.83Q42.13,25.47,42,25L43.11,24l.92.35.37-1a58.61,58.61,0,0,1,10.45,2.8l1.43-3.74c-3-1.14-6.46-2.08-9-2.77l-.46-.12.07-1-1.4-.1-.07-.26L49,16.31l-.43-.81a126,126,0,0,1,11.59-6L58.57,5.84a125.44,125.44,0,0,0-12.34,6.27l-.42-.57-3.12,2.33-.76-.56.56-2-1.06-.31c.06-.66.14-1.35.2-1.92C41.8,7.5,42,5.92,42,4.8A48,48,0,0,1,94.88,30.61l-2.94-1.87A186.25,186.25,0,0,1,76.18,48.39L73,46.31l-1,1.41.48-1.27L70,45.53c.83-4.13,1.93-9.14,2.8-13.1l-3.88-1c-.94,3.45-1.8,6.77-2.57,9.75-.5,1.92-1,3.87-1.47,5.61l-2.77-.12C62,48.93,61.91,51,61.81,52.83Zm-47-8.4,1.58-1v0l-1.56,1Zm-1.94-1.36-.73,1-2.07-1c-1.95-.9-3.8-1.76-5-2.21a48.09,48.09,0,0,1,17-26.79L25,15.68l1.81.94c1,.49,2.37,1.22,3.53,1.84l-.4,0L30,19.77c-.94.3-2.07.64-3.07.95-1.71.52-3.64,1.1-5.46,1.71l1.14,3.83,3.54-.94,2-.52A60.85,60.85,0,0,0,20,33.13l3.07,2.56a95.5,95.5,0,0,1,8.73-8.51l.72.61c-.65,1.8-1.47,4-2.11,5.65l.6.24c-2.27,2.47-4.47,5.26-6.14,7.37l-.35.45-1-.52-.8,1.55-1-.13c-.15-1.29-.31-2.77-.48-4.35l-1.09.11a130.22,130.22,0,0,1-1.34-14.41l-4,.08A129.84,129.84,0,0,0,16.1,39.14l-.81.23c.41,1.45.79,2.81,1.12,4l-1.58,1Zm32.6-24.59-.07-.25h0l.07.26Zm0,0-.07-.24h0l.07.25ZM35.06,14.83l1.2-.37v0l-1.18.37Zm-1.39-1.19-.86,1c-.63-.27-1.36-.6-1.93-.86A33.85,33.85,0,0,0,26.41,12l-1-.26A47.82,47.82,0,0,1,37.72,5.9L37.5,7.48c-.14,1-.32,2.29-.5,3.43l-.53,0c-.08,1.31-.15,2.54-.22,3.58l-1.2.37Z" transform="translate(-1.81 -1.79)"/><path class="a" d="M51.81,5.79q1,0,2,0C50.4,7.48,47.24,9.24,45,10.5l-.41-.55-1.14.85c.05-.51.1-1,.15-1.46.12-1.12.22-2.07.29-2.88a46.13,46.13,0,0,1,7.91-.68m7,.53A46.1,46.1,0,0,1,91.32,28.24l-1-.64A184.1,184.1,0,0,1,74.53,47.23L72,45.61c.82-4,1.89-8.91,2.73-12.75L67,31c-.94,3.46-1.81,6.81-2.58,9.77-.52,2-1.08,4.15-1.58,6l-2.72-.12v.14c-3.06-5.33-8-13.84-13.58-20.93a57.61,57.61,0,0,1,7.62,2.23L57,20.59c-2.41-.92-5.1-1.71-7.39-2.34l.33-.17-.42-.81A123.71,123.71,0,0,1,61,11.35l-2.17-5M35.28,8.86c-.09.65-.19,1.32-.28,1.93l-.52,0c0,.72-.08,1.42-.12,2.07l-.19.22c-.65-.26-1.71-.74-2.47-1.09l-1.6-.72a45.8,45.8,0,0,1,5.18-2.38m-13,7.67,1.73.91,1.83.95.68.35-.2.06c-1.72.52-3.67,1.11-5.51,1.72L22.75,27c-.57.57-1.14,1.16-1.7,1.76-.14-1.72-.24-3.45-.28-5.08l-5.44.1a46.41,46.41,0,0,1,7-7.27m21.78,7.91h.32l-.41.3-.05-.14.06-.16h.07M12.89,27.3c.25,4.68.84,9.26,1.26,12.38l-.8.22.49,1.76-.54.77-2.4-1.1c-1.24-.58-2.45-1.14-3.5-1.59A45.78,45.78,0,0,1,12.89,27.3m24.78,4.37a55.35,55.35,0,0,0,4.27,8.16l2.74-1.56c4.23,6.81,7,11.75,8.61,14.95l-2.48,2.5-1.69-.49-.63,2.19A128.39,128.39,0,0,1,34,55.14a68.47,68.47,0,0,0,10.26-1.34L43,45.92c-5.81.58-11,.91-14.24.91h-.08l-.15-.14a69,69,0,0,1,7.74-9.86l-1.73-1.66,1.4.57c.62-1.43,1.21-2.81,1.74-4.07m-9,1.1.35.14c-2.08,2.31-4.05,4.8-5.59,6.75l-.2-1.84-1.09.11c-.15-1-.3-2.14-.45-3.31L24.54,37c1.38-1.52,2.78-3,4.09-4.25m66.2,2.72A46,46,0,0,1,93.47,71.3l-.92-.39-4.15-1.73c-2.52-1-6.4-2.64-9.25-3.9v0l1.45-.21-.41-2.84c1.87-.78,4.07-1.66,6-2.44,3.47-1.38,7.41-2.95,11.09-4.54l-2.92-7.44-7.25,2.59-6,2.13a134,134,0,0,0,13.62-17M17.65,46.73h0M6,48.2l.11.06L9.7,50.12l-.23.56,1.63.67-.14.07.66,1.26c-.61.59-1.45,1.37-2.08,2-1.24,1.14-2.43,2.24-3.33,3.19a45.69,45.69,0,0,1-.4-6Q5.81,50,6,48.2m9,12.86-.15,1.43c-.2,2-.44,4.27-.59,6.43l7.95.85.07-.47a51.5,51.5,0,0,0,3.4,6.39l6.92-4c-1.54-3-2.87-5.9-3.88-8.37l2.39,2L33,63.16c3.68.8,7.22,1.48,10.24,2.06l1.11.21v2.11h3.28l.49,1.31-6.81,4.56,1.13,1.71C37,79,29.91,83.84,23.21,87.8A46.18,46.18,0,0,1,8.29,66.64l2.76-2.28,1.86-1.55L15,61.06m56.17,12.8,3.33,2.32,1.61-2.3c1.37.47,2.9,1,4.13,1.46,3.45,1.24,6.74,2.43,9.11,3a46.25,46.25,0,0,1-21.3,16.49c0-1.46,0-3.15,0-4.88,0-2.21-.05-5-.06-7.35l1.14-.11c-.25-2.7-.48-5.19-.66-7.31l2.73-1.31M54.68,77.13l.92.5,1.73.9c-.18,1.43-.39,3-.59,4.53l2.36.31c.08,1.47.15,3,.21,4.3.17,3.57.32,7,.58,9.41a46.09,46.09,0,0,1-29.12-4.4c6.59-4,12.76-8.27,17.12-11.36L49,82.48c2.08-1.95,4-3.77,5.72-5.36M51.81,1.79A50,50,0,0,0,22.92,92.58c14.72-8.37,33.2-22.26,31.53-22.26-.61,0-3.86,1.83-10.91,6.41,12-8,16.73-11.18,15.22-11.18-1,0-4.58,1.33-10.52,3.52h0c13.94-5.15,15-5.54.17-5.54H44.34c17.16,0,.18-1.57-15.16-5.37,1.34,1.21,2.89,2.6,4.49,4.08C31.8,60.7,30,59.22,28.55,58c-.86-.22-1.72-.44-2.57-.68l1.22,1.39h0L26,57.33l-1.63-.46,1.62.46c-2.39-2.67-3.65-4.11-3.91-4.11s.88,2.21,3.37,7c-1.44-2.34-2.26-3.33-2.61-3.33-1.05,0,2.2,8.87,6.25,16.66-4.21-6.6-6.86-16-7-16a6.52,6.52,0,0,0,.19,1l.57,2.58v0l-.57-2.58c-.75-3.35-1.17-5-1.44-5s-.43,2.55-.62,7.65c.11-3,.09-4.24,0-4.24-.29,0-1.13,6.78-1.92,12.35.44-6.07,1.49-13,.86-13-.23,0-.69.95-1.5,3.24,1.61-4.59,2.35-6.7,1.79-6.7s-1.89,1.53-4.52,4.36c1.54-1.66,2-2.31,1.81-2.31-.55,0-6,4.67-8.18,6.51,1.67-2.15,8.37-7.47,7.05-7.47A9.47,9.47,0,0,0,12.81,55c7.78-4.05,7.79-4.05,1-4.33h0c1.43.06,2.56.1,3.36.1,3,0,1.43-.65-6.17-3.76a22.48,22.48,0,0,0,3.36,1.24c.7,0-8-4.23-10.35-5.53,2.32.74,9.61,4.52,10.62,4.52.42,0-.26-.67-2.88-2.5,4.28,3,6.49,4.55,7.1,4.55s-.53-1.77-3-5.45l0,0,0,0c2.06,3.08,3.23,4.83,3.61,4.83s-.33-3-2.24-9.8a29.61,29.61,0,0,0,1.4,4.54c.29,0-1.73-10.28-1.84-19.57C17,32.63,19,45.05,19.51,45.05c.2,0,.17-1.93-.3-6.79.76,6.94,1.1,10.08,1.43,10.08s.54-2.11,1-6v0c-.54,4.21-.81,6.35-.39,6.35s1.6-2.25,4-6.82c-1.31,2.52-1.74,3.52-1.54,3.52.5,0,5.15-6.69,9.65-11.36-4.78,5-10,12.55-9.07,12.55.24,0,.92-.56,2.18-1.87-3.63,3.8-5,5.25-3.84,5.25a20.65,20.65,0,0,0,4.22-1.15l1-.33-1,.33c-4.11,1.41-2.54,2,1.89,2,3.53,0,8.89-.36,14.63-.93-9.54,2.15-22.78,1-14.56,2.25a54.33,54.33,0,0,0-5.59-.71c-1.71,0,0,1,5.1,4a14.37,14.37,0,0,0-3.51-1.75c-.61,0,1.37,1.82,4.35,4.5,8.59,2.09,18,3.39,21.94,3.39,3,0,2.89-.75-3.07-2.48,6.12,1.77,9.79,2.84,11.35,2.84,2.14,0,.25-2-4.84-7-.45-.43-.92-.89-1.45-1.42l1.45,1.42c2.08,2,3.38,2.86,4,2.86,2.58,0-5.87-14.85-16.57-31.19,9.13,10.8,16.92,27,17.66,27,.22,0-.17-1.4-1.32-4.74,2.44,7.12,3.71,10.8,4.44,10.8s1-4.17,1.37-12.78c-.24,5.27-.13,7.48.29,7.48.9,0,3.22-10.35,6.46-22.27C68.3,43.66,66.11,53.77,67,53.77c.41,0,1.52-2.35,3.64-8-3.35,9-5.17,13.41-4.61,13.41s3.17-3.92,8.63-11.7c-3.12,5.21-3.84,7.37-3,7.37,2.06,0,13.1-12.3,21.95-24.94C86.22,42.68,72.73,55.33,73,55.33a14.72,14.72,0,0,0,1.43-1.14L78.27,51h0l-3.82,3.21C68.9,58.87,66.54,61,67.59,61s5.29-2,13-5.68C74.85,58,73,59.09,73.71,59.09c1.34,0,12.61-4.2,22-7.53-12,5.2-26.73,10.09-21.2,10.09A44.19,44.19,0,0,0,80,61.09c-16.68,2.41-16.68,2.41-1.53,6.55a29.62,29.62,0,0,0-5.13-1.15c-2.43,0,12.14,5.77,17.62,8.1-4.3-.79-15.67-5.69-18.09-5.69-1.12,0-.34,1,3.91,4-6.38-4.46-9.74-6.81-10.92-6.81s0,2.86,2.87,8.89h0v0h0c-2.35-5-3.68-7.82-4.28-7.82-.78,0-.35,4.76.66,15.68-.44-4.82-.72-6.69-.9-6.7-.53,0-.08,17.08-.17,22-.83-4.76-.82-21.68-1.85-21.68-.35,0-.83,2-1.5,7.09,1.44-10.92,2.09-15.91,1.15-15.91-.79,0-2.7,3.48-6.21,9.88l0,0,0,0,0,0,0,0c3.72-6.79,5.64-10.3,4.7-10.3s-5.28,4-14.12,12.31c4.78-4.48,6.6-6.27,6.29-6.27-.77,0-15,11.26-29.57,19.29A50,50,0,1,0,51.81,1.79ZM38.42,14.1c.24,0,1.23-7.84,1.61-10.1.05,2.22-1.14,10-.65,10,.17,0,.52-.89,1.19-3.21-1.44,5-2.09,7.26-1.63,7.26s1.5-1.53,3.55-4.32l0,0,0,0c-2.22,3-3.35,4.56-2.88,4.56s2.76-1.7,7.39-5.17c-2.54,1.91-3.51,2.66-3.35,2.66.41,0,8.19-4.95,15.69-8.12-7.52,3.3-17.7,9.43-16.79,9.43.31,0,2-.73,5.49-2.57-6.25,3.34-8.63,4.61-7.79,4.61a39.26,39.26,0,0,0,5-1.25h0c-7.36,2-7.35,2,1.45,2.67-1.27-.09-2.14-.13-2.68-.13-3.19,0,5.37,1.54,11.49,3.88-4.56-1.74-10.7-3.08-12.49-3.08-1,0-.69.37,1.66,1.26-2.84-1.07-4.49-1.69-5.15-1.69-.85,0-.09,1,1.85,3.39l.57.69-.57-.69c-.85-1-1.4-1.46-1.69-1.46-1.14,0,1.73,7.07,5.53,14.89-3.49-5.28-6-13-6.31-13-.1,0,0,.66.28,2.22-.64-3.38-1-5.11-1.31-5.11s-.74,1.91-1.52,5.82c.48-2.43.58-3.44.38-3.44-.42,0-2.22,4.66-4.55,10,2-5.28,3.73-9.86,3.32-9.86-.19,0-.87,1-2.24,3.56,2.19-4,3.34-6,3.07-6s-1.76,1.71-4.82,5.08c1.84-2.32,2.31-3.28,1.88-3.28-1,0-6.95,5.24-11.9,10.7,4.31-5.63,11.46-11,11.31-11A11.06,11.06,0,0,0,32,24l-1.81,1.22L32,24c3.08-2.08,4.38-3,3.79-3s-2.64.78-6.38,2.16c2.94-1.09,3.81-1.5,3.42-1.5-.75,0-6.18,1.52-10.71,2.71,6.29-2.09,13.95-3.93,10-3.93-.49,0-1.16,0-2,.09,7.9-.54,7.9-.54,1.17-3a11.65,11.65,0,0,0,2.34.7c.92,0-5.3-3.08-7.64-4.32,2,.52,7,3.23,8,3.23.45,0,.12-.52-1.58-2,2.69,2.31,4.09,3.5,4.62,3.5s.14-1.36-.74-4.18v0h0v0c.75,2.39,1.17,3.73,1.45,3.73s.49-2.2.78-7.22a12.93,12.93,0,0,0,0,3.1Z" transform="translate(-1.81 -1.79)"/><path class="a" d="M26,57.33c.84.23,1.69.45,2.55.66C24.65,54.85,22.7,53.53,26,57.33Z" transform="translate(-1.81 -1.79)"/><path class="a" d="M24.39,55c-.27,0,.18.69,1.59,2.32.84.23,1.69.45,2.55.66-2.2-1.79-3.79-3-4.14-3Z" transform="translate(-1.81 -1.79)"/></svg>