<svg xmlns="http://www.w3.org/2000/svg" viewBox="0 0 100 100"><defs><style>.a{fill:#fff;}</style></defs><title>mercury1</title><path class="a" d="M65.06,114.29a48,48,0,1,1,48-48A48.05,48.05,0,0,1,65.06,114.29Z" transform="translate(-15.06 -16.29)"/><path d="M65.06,20.29a46,46,0,1,1-46,46,46.05,46.05,0,0,1,46-46m0-4a50,50,0,1,0,50,50,50,50,0,0,0-50-50Z" transform="translate(-15.06 -16.29)"/><path class="a" d="M78.64,92.58c-.15-.44-.32-.58-.55-.61.16-1.93.1-2.62-.18-2.94a.58.58,0,0,0-.47-.17c-.52,0-.89.14-2.21,3.14h0c-.18,0-.33,0-.68.4.21-.57.21-.9.08-1.13a.7.7,0,0,0-.1-.14c1.83-1.9,2.2-2.51,2-3a.72.72,0,0,0-.74-.43A14.46,14.46,0,0,0,71.83,89a.66.66,0,0,0-.41-.12,5.54,5.54,0,0,0-1,.17c.55-.3.7-.52.69-.78,4.33-.63,5-.9,5-1.61a.65.65,0,0,0-.11-.44.58.58,0,0,0,.18-.29c.16-.58-.12-.92-4.58-3.64,0-.12-.08-.26-.33-.5a1.67,1.67,0,0,0,.61.18.63.63,0,0,0,.34-.09c2.77,2.56,3.76,3.32,4.4,3.32a.7.7,0,0,0,.6-.31.76.76,0,0,0,.09-.19.72.72,0,0,0,.33.08c.86,0,1.08-1,1.28-5.71.24,0,.42-.21.66-.88,0,.49,0,.61.14.73h0c-1.12,4.41-1.22,5.27-.9,5.69l.15.19.33,0h.06a.68.68,0,0,0,.08.23.67.67,0,0,0,.6.34c.58,0,1.63-.65,4.35-2.64a.65.65,0,0,0,.46.16,1.85,1.85,0,0,0,.45-.07c-.78.5-1,.72-1,.91-3.51,1.49-4.17,1.94-4,2.62s.85.81,3.79.82c0,.39.25.68,1.17,1.05a4.66,4.66,0,0,0-.54,0,.76.76,0,0,0-.56.19,14.42,14.42,0,0,0-3.36-.89.7.7,0,0,0-.75.44c-.17.48.1.91,2,2.5l0,.07a.74.74,0,0,0,.06.7.89.89,0,0,0-.46-.2h-.17c-1.3-2-1.71-2.3-2.16-2.3a.63.63,0,0,0-.49.25c-.26.33-.26.91.21,3l-.16.15A.88.88,0,0,0,78.64,92.58Z" transform="translate(-15.06 -16.29)"/><path d="M78.52,85a1.09,1.09,0,0,0,.5.31h0a1.15,1.15,0,0,0,.78.57,1.28,1.28,0,0,0,0,.6,1.13,1.13,0,0,0,.36.66,1.14,1.14,0,0,0-.6.65,1.23,1.23,0,0,0-.08.47h-.21a1.11,1.11,0,0,0-.88.43l-.07.1,0-.05a1.12,1.12,0,0,0-.84-.38,1.28,1.28,0,0,0-.37,0,1.21,1.21,0,0,0-.1-.47,1.19,1.19,0,0,0-.53-.58,1.17,1.17,0,0,0,.2-.65,1.45,1.45,0,0,0,0-.43,1.07,1.07,0,0,0,.08-.19,1.49,1.49,0,0,0,.06-.38,1.19,1.19,0,0,0,.82-.42h.09a1.15,1.15,0,0,0,.86-.28m5.11,2.71h0M82.2,64.45c-1,3.14-2.76,14.1-3.39,14.1-.21,0-.3-1.24-.2-4.42-.23,7-.34,10.13-1,10.13s-1.34-2.06-2.87-5.78c1.69,4.13,2.54,6.21,1.85,6.21s-3-2.16-7.61-6.5c2.54,2.39,3.25,3.28,2.87,3.28-1,0-9.41-6.08-12.25-7.51,2.58,1.93,12,8.4,11.42,8.4a27.22,27.22,0,0,1-4-2.19c7,4.19,9.55,5.74,8.28,5.74a43.68,43.68,0,0,1-6-1.37c8.83,2.28,8.81,2.28-3.05,3.88a30.79,30.79,0,0,1,3.56-.34c3.77,0-8.49,3.47-11.77,5.16,3.57-1.08,12.2-3.86,13.32-3.86.46,0-.33.46-3.23,1.7,4.32-1.84,6.78-2.88,7.57-2.88,1,0-.76,1.8-4.93,6,1.9-1.89,2.89-2.69,3.24-2.69,1,0-3.28,6.52-6.36,12.33,3.27-5.1,7.08-11.35,7.51-11.35.19,0-.26,1.17-1.65,4.11,2.27-4.77,3.42-7.2,3.88-7.2s.18,2.62-.4,8c.37-3.39.66-4.82.92-4.82.55,0,1,6.21,1.87,13.65-.46-7.45-1.05-13.67-.58-13.67.22,0,.69,1.41,1.52,4.76-1.33-5.38-2-8-1.49-8s1.89,2.27,4.67,6.66c-2-3.08-2.61-4.33-2.35-4.33.51,0,4.52,4.77,9.21,10.05-4.75-6-9.12-10.94-8.26-10.93.35,0,1.57.82,4,2.74C81.75,89.61,79.7,88,80.79,88c.8,0,3.33.89,7.72,2.43C84.91,89.16,84,88.7,84.71,88.7c1.29,0,8.11,1.63,13.09,2.69-7.63-2.5-19.61-4.59-9.06-4.74-1.68,0-3.1,0-4.24,0-6,0-4.67-.56,3.93-4.1a19.78,19.78,0,0,1-3.51,1.27c-1,0,8.74-5,12.25-6.82-2.75.86-11.08,5.38-12.29,5.38-.5,0,.23-.78,3.1-2.93-4.8,3.58-7.24,5.41-7.92,5.41s.52-2,3-6c-2.16,3.5-3.36,5.45-3.75,5.45s.32-3.11,2.16-10.15c-.83,3.16-1.22,4.39-1.35,4.39-.38,0,1.68-11,2.07-14.12Zm.88,14.41h0ZM69.33,84.51h0Zm0,0h0Zm0,0h0Z" transform="translate(-15.06 -16.29)"/><path class="a" d="M45.36,46.66l-.05-.07c.3-2.53.3-3.32,0-3.68a.62.62,0,0,0-.48-.22c-.47,0-.87.43-1.94,2.25l-.17,0c-.22,0-.46.12-.89.5a.63.63,0,0,0,0-.56h0c1.84-1.73,2-2,1.83-2.4l-.12-.32-.41,0c-.36,0-1.07.34-3.21,1.5a.72.72,0,0,0,0-.27.64.64,0,0,0-.19-.3c3.52-.89,3.79-1.12,3.73-1.69s-.39-.71-3.57-.82a.38.38,0,0,0-.15-.16,1,1,0,0,0,.81-.41,12.16,12.16,0,0,0,2.81.66.76.76,0,0,0,.81-.45c.2-.54-.18-1.08-2.15-2.88.05-.17,0-.37-.38-1a1.31,1.31,0,0,0,.73.31.63.63,0,0,0,.21,0c1.42,2.51,1.93,3.13,2.54,3.13a.68.68,0,0,0,.57-.26h0l.29,0c.31,0,.55-.15.94-.87a1,1,0,0,0-.06.93.65.65,0,0,0,.57.34.81.81,0,0,0,0,.14c.06.2.24.44.74.46-.41.17-.44.35-.44.6t0,.09a.64.64,0,0,0-.37.44c-.14.59.31,1,3.44,2.59a.44.44,0,0,0,0,.17,1.85,1.85,0,0,0-.61-.15.67.67,0,0,0-.39.11c-1.77-1.58-2.5-2.1-3-2.1a.7.7,0,0,0-.59.3c-.24.33-.22.85.11,2a.75.75,0,0,0-.46.26A3.6,3.6,0,0,0,45.36,46.66Zm5.72-6.75H51Zm-3.88-2c.3-.65.67-1.57,1.18-2.85.1,0,.21-.11.38-.35a.68.68,0,0,0,.09.45l0,0C48.07,36.47,47.54,37.33,47.2,37.94Z" transform="translate(-15.06 -16.29)"/><path d="M46.43,39.93a1.13,1.13,0,0,0,.55.42,1.11,1.11,0,0,0,.28.37,1.07,1.07,0,0,0,0,.21,1.44,1.44,0,0,0-.36.72c0,.08,0,.35,0,.35h0a1.12,1.12,0,0,0-1,.39.94.94,0,0,0-.14.19,1.16,1.16,0,0,0-.81-.38,1.13,1.13,0,0,0-.67.18l0-.12a1,1,0,0,0-.28-.4,1.12,1.12,0,0,0,.07-.59c0-.09,0-.18,0-.26a1.17,1.17,0,0,0,.72-.69,1.6,1.6,0,0,0,.05-.17,1.32,1.32,0,0,0,.43.07,1.25,1.25,0,0,0,.78-.22h.09a1.19,1.19,0,0,0,.51-.09m7.28-16.2c-1.25,2.4-5.18,10.88-5.5,10.88-.11,0,.21-1,1.2-3.54-2.11,5.46-3.07,8-3.49,8s-.31-1.74-.24-4.95c-.07,3.41-.11,5.16-.62,5.16s-1.64-2-3.88-6.11c1.19,2.18,1.45,3,1.13,3-.84,0-5.7-5.8-7.76-7.33,2.05,2.39,7.45,8.39,6.87,8.39A10.45,10.45,0,0,1,39,35.32c3.8,3.38,5.38,4.79,4.26,4.79-.8,0-2.95-.71-6.63-1.92,4,1.31,4.08,1.71,2.19,1.71-2.31,0-7.59-.6-12.34-.85,7.58.92,17.33,1.89,10.56,1.89l-2.12,0c9.56.17,10.48.19,2.82,2.06.58-.14.88-.21.95-.21.41,0-9.58,3-16.47,7.56,7-3.82,14.87-7,16.73-7,1,0,.29.87-3,3,4.41-2.4,6.69-3.69,7.11-3.69s-1.5,1.74-5.54,5.53C39.88,46,41,45,41.3,45c.63,0-3,4.57-7.25,9.85,4.44-5,8.07-9.47,8.65-9.47.29,0-.17,1.1-1.66,3.79,2.21-4,3.33-6,3.77-6s.17,2.14-.4,6.46a8.78,8.78,0,0,1,.5-2.68c.38,0,.25,10,2.13,17.72-1.25-10.4-1.79-19.59-.66-19.59.32,0,.76.72,1.36,2.32-1.1-3.15-1.56-4.64-1-4.64S49,44.26,52,47.08c-1.79-1.64-2.25-2.32-1.84-2.32,1.07,0,8.22,4.77,13.06,9.24C58,49.16,50.44,44.19,51.36,44.19A18.47,18.47,0,0,1,55,45.76c-6.5-3.21-8.52-4.21-6.25-4.21,1,0,2.93.2,5.68.5-8.87-1-8.86-1,4.21-2.64-3.38.39-5.4.55-6.35.55-4.06,0,11-2.91,21.28-3.38-9,.29-19,2.34-20.12,2.34-.52,0,.71-.41,4.56-1.57C52.23,39.08,49.14,40,48.19,40c-1.1,0,.71-1.26,4.62-4-3.09,2.16-4.87,3.4-5.42,3.4-.74,0,.79-2.28,4.38-7.63-1.52,2.27-2.25,3.16-2.46,3.16-.67,0,3.62-8.62,4.39-11.22ZM45.68,34v0Zm7.17,2,0,0,0,0Zm1.55,6.05h0Zm0,0h0Zm0,0h0ZM37.77,43,35,43.65,37.77,43Zm10,4.43.42,1.19q-.22-.66-.42-1.19Z" transform="translate(-15.06 -16.29)"/><path class="a" d="M32.12,86.73v0Zm1.53-.87c-.13-.33-.23-.59-.32-.8l.38.52A.54.54,0,0,0,33.65,85.86Zm-3.18-.15.06-.06,0,.09Zm1.77-1.43-.07-.08L32,84h-.27c-.06,0-.11.08-.16.09a.54.54,0,0,0,0-.44.59.59,0,0,0-.37-.31.61.61,0,0,0,.31-.46.64.64,0,0,0,0-.3.92.92,0,0,0,.07-.17c0-.12.07-.41,0-.41h.27l.23-.18.06,0a.56.56,0,0,0,.38-.1l.16.22h.06a.67.67,0,0,0,.06.12l.14.25.29,0a.62.62,0,0,0-.14.53.67.67,0,0,0,.45.53h-.1a.6.6,0,0,0-.56.33c-.09.18-.1.2,0,.48-.1-.09-.21-.25-.34-.25h-.22Zm-3.39-.39,0-.09.61-.06-.4.16Zm5.58-.14-.37-.17.36.06A.45.45,0,0,0,34.43,83.76Zm1.72-3.23h.12a2.41,2.41,0,0,0-.37.42l-.65.28Z" transform="translate(-15.06 -16.29)"/><path d="M32.39,82.36l0,0a1.08,1.08,0,0,0,.19.22,1.51,1.51,0,0,0,0,.39,1.36,1.36,0,0,0,.07.25,1.07,1.07,0,0,0-.23.31,1.49,1.49,0,0,0-.1.25l-.14-.16h-.12L32,83.49a1.12,1.12,0,0,0-.11-.2A1.57,1.57,0,0,0,32,83a1.44,1.44,0,0,0,0-.31v0l.05-.15a1.09,1.09,0,0,0,.23-.14h.07m4.47-16.82c-2.32,5.66-3.69,12.4-3.89,12.4a17.55,17.55,0,0,1,.28-3.12c-.53,4.51-.77,6.55-1.08,6.55s-.55-1.38-1.09-3.9c.59,2.73.88,4.13.56,4.13S30.3,80.08,28.24,77c1.1,1.65,1.41,2.27,1.24,2.27-.46,0-4.32-4.38-5.65-5.45,1.16,1.37,5.45,6,5.18,6a12.56,12.56,0,0,1-1.84-1.61c3.14,3,4.35,4.12,3.82,4.12a15.28,15.28,0,0,1-3-1.17C32.28,83,32.27,83,26.27,83.54c.61-.05,1.08-.07,1.41-.07,3,0-4,1.83-5.78,2.83,1.81-.53,6.14-1.91,6.82-1.91.3,0-.09.26-1.68,1A19.68,19.68,0,0,1,31,83.82c.6,0-.39,1.08-2.77,3.65,1-1.13,1.58-1.6,1.76-1.6.53,0-2,4.08-3.89,7.74,1.93-3.17,4.19-7,4.41-7s-.19.74-1.07,2.6c1.4-3,2.12-4.51,2.36-4.51s0,1.12-.36,3.4a4.13,4.13,0,0,1,.12-.61c.07,0-.69,6.44.29,11.55-.55-5.66-.35-11.75.28-11.75.23,0,.52.8.84,2.7-.33-3.47-.53-5.13-.35-5.13s.73,1.61,1.88,4.68c-.8-2.13-1-3-.87-3s2.06,3.15,4.06,6.78c-2-4.09-3.86-7.5-3.46-7.5.17,0,.72.59,1.83,2-2.11-2.64-3-3.79-2.57-3.79a18.16,18.16,0,0,1,3.72,1.94c-1.23-.71-1.65-1-1.46-1,.54,0,6.35,2.47,11.32,3.3-8.1-2.35-14.84-4.85-11-4.85l.69,0c-4.41-.33-4.13-.45.92-2.59a4.84,4.84,0,0,1-1.25.42c-1.06,0,8.8-5.93,13.59-7.94C45.55,75.1,37.22,80,36.34,80c-.24,0,.09-.38,1.25-1.32-2.56,2.08-3.89,3.16-4.25,3.16s.34-1.23,1.84-3.78c-1.28,2.17-2,3.38-2.19,3.38s.34-2,1.68-6.51c-.94,3-1.42,4.22-1.56,4.22-.36,0,1.59-8.17,3.74-13.65ZM35.19,78.1h0Zm-7.18,3h0Zm0,0h0Zm0,0h0Zm8.68,2.21.83.06-.83-.06ZM31.39,88l-.31,1.77L31.39,88Z" transform="translate(-15.06 -16.29)"/></svg>