<svg xmlns="http://www.w3.org/2000/svg" viewBox="0 0 100 100"><defs><style>.a{fill:#fff;} path{fill:#fff;}</style></defs><title>mercury3</title><path class="a" d="M63.58,76.29c-.15-.44-.32-.58-.55-.61.16-1.93.1-2.62-.18-2.94a.58.58,0,0,0-.47-.17c-.52,0-.89.14-2.21,3.14h0c-.18,0-.33,0-.68.4.21-.57.21-.9.08-1.13a.7.7,0,0,0-.1-.14c1.83-1.9,2.2-2.51,2-3a.72.72,0,0,0-.74-.43,14.46,14.46,0,0,0-4,1.3.66.66,0,0,0-.41-.12,5.54,5.54,0,0,0-1,.17c.55-.3.7-.52.69-.78,4.33-.63,5-.9,5-1.61a.65.65,0,0,0-.11-.44.58.58,0,0,0,.18-.29c.16-.58-.12-.92-4.58-3.64,0-.12-.08-.26-.33-.5a1.67,1.67,0,0,0,.61.18.63.63,0,0,0,.34-.09c2.77,2.56,3.76,3.32,4.4,3.32a.7.7,0,0,0,.6-.31.76.76,0,0,0,.09-.19.72.72,0,0,0,.33.08c.86,0,1.08-1,1.28-5.71.24,0,.42-.21.66-.88,0,.49,0,.61.14.73h0c-1.12,4.41-1.22,5.27-.9,5.69l.15.19h.39a.68.68,0,0,0,.08.23.67.67,0,0,0,.6.34c.58,0,1.63-.65,4.35-2.64a.65.65,0,0,0,.46.16,1.85,1.85,0,0,0,.45-.07c-.78.5-1,.72-1,.91-3.51,1.49-4.17,1.94-4,2.62s.85.81,3.79.82c0,.39.25.68,1.17,1.05a4.66,4.66,0,0,0-.54,0,.76.76,0,0,0-.56.19,14.42,14.42,0,0,0-3.36-.89.7.7,0,0,0-.75.44c-.17.48.1.91,2,2.5v.07a.74.74,0,0,0,.06.7.89.89,0,0,0-.46-.2h-.17c-1.3-2-1.71-2.3-2.16-2.3a.63.63,0,0,0-.49.25c-.26.33-.26.91.21,3l-.16.15A.88.88,0,0,0,63.58,76.29Z" transform="translate(0)"/><path d="M50,4A46,46,0,1,1,4,50,46,46,0,0,1,50,4m0-4a50,50,0,1,0,50,50A50,50,0,0,0,50,0Z" transform="translate(0)"/><path class="a" d="M30.3,30.37l0-.07c.3-2.53.3-3.32,0-3.68a.62.62,0,0,0-.48-.22c-.47,0-.87.43-1.94,2.25h-.17c-.22,0-.46.12-.89.5a.63.63,0,0,0,0-.56h0c1.84-1.73,2-2,1.83-2.4l-.12-.32h-.41c-.36,0-1.07.34-3.21,1.5a.72.72,0,0,0,0-.27.64.64,0,0,0-.19-.3c3.52-.89,3.79-1.12,3.73-1.69s-.39-.71-3.57-.82a.38.38,0,0,0-.15-.16,1,1,0,0,0,.81-.41,12.16,12.16,0,0,0,2.81.66.76.76,0,0,0,.81-.45c.2-.54-.18-1.08-2.15-2.88,0-.17,0-.37-.38-1a1.31,1.31,0,0,0,.73.31.63.63,0,0,0,.21,0c1.42,2.51,1.93,3.13,2.54,3.13a.68.68,0,0,0,.57-.26h.29c.31,0,.55-.15.94-.87a1,1,0,0,0-.06.93.65.65,0,0,0,.57.34.81.81,0,0,0,0,.14c.06.2.24.44.74.46-.41.17-.44.35-.44.6v.09a.64.64,0,0,0-.37.44c-.14.59.31,1,3.44,2.59a.44.44,0,0,0,0,.17,1.85,1.85,0,0,0-.61-.15.67.67,0,0,0-.39.11c-1.77-1.58-2.5-2.1-3-2.1a.7.7,0,0,0-.59.3c-.24.33-.22.85.11,2a.75.75,0,0,0-.46.26A3.6,3.6,0,0,0,30.3,30.37ZM36,23.62h0Zm-3.88-2c.3-.65.67-1.57,1.18-2.85.1,0,.21-.11.38-.35a.68.68,0,0,0,.09.45h0C33,20.18,32.48,21,32.14,21.65Z" transform="translate(0)"/><path d="M30.79,19.83c0-.59,0-1.26,0-2C30.82,18.57,30.8,19.24,30.79,19.83Z" transform="translate(0)"/><path d="M33.13,32.33q-.22-.66-.42-1.19Z" transform="translate(0)"/><path d="M29.56,31.74a8.76,8.76,0,0,0-.21,1.6Z" transform="translate(0)"/><path d="M35.1,28.47c1.07,0,8.22,4.77,13.06,9.24C42.94,32.87,35.38,27.9,36.3,27.9a18.49,18.49,0,0,1,1.83.68c-5-2.5-6.49-3.32-4.44-3.32,1,0,2.93.2,5.68.5-8.87-1-8.86-1,4.21-2.64-3.38.39-5.4.55-6.35.55-4.06,0,11-2.91,21.28-3.38-9,.29-19,2.34-20.12,2.34-.52,0,.71-.41,4.56-1.57-5.78,1.73-8.87,2.65-9.82,2.65s.71-1.26,4.62-4c-3.09,2.16-4.87,3.4-5.42,3.4-.74,0,.79-2.28,4.38-7.63-1.52,2.27-2.25,3.16-2.46,3.16-.56,0,2.29-5.91,3.72-9.42-1.65,3.37-4.34,9.08-4.6,9.08-.11,0,.21-1,1.2-3.54-2.11,5.46-3.07,8-3.49,8s-.33-1-.29-2.93c-.06,2.07-.18,3.14-.57,3.14s-1.64-2-3.88-6.11c1.19,2.18,1.45,3,1.13,3-.84,0-5.7-5.8-7.76-7.33,2,2.39,7.45,8.39,6.87,8.39A10.45,10.45,0,0,1,23.94,19c3.8,3.38,5.38,4.79,4.26,4.79-.8,0-3-.71-6.63-1.92,4,1.31,4.08,1.71,2.19,1.71-2.31,0-7.59-.6-12.34-.85C19,23.68,28.75,24.65,22,24.65H19.86c9.56.17,10.48.19,2.82,2.06.58-.14.88-.21,1-.21.41,0-9.58,3-16.47,7.56,7-3.82,14.87-7,16.73-7,1,0,.29.87-3,3,4.41-2.4,6.69-3.69,7.11-3.69s-1.5,1.74-5.54,5.53c2.36-2.19,3.48-3.19,3.78-3.19.63,0-3,4.57-7.25,9.85,4.44-5,8.07-9.47,8.65-9.47.29,0-.17,1.1-1.66,3.79,2.21-4,3.33-6,3.77-6s.23,1.62-.19,4.86a8.76,8.76,0,0,1,.29-1.08c.38,0,.25,10,2.13,17.72-1.25-10.4-1.79-19.59-.66-19.59.32,0,.76.72,1.36,2.32-1.1-3.15-1.56-4.64-1-4.64s2.26,1.5,5.26,4.32C35.15,29.15,34.69,28.47,35.1,28.47Zm-2.9-3.83a1.44,1.44,0,0,0-.36.72v.35a1.12,1.12,0,0,0-1,.39.94.94,0,0,0-.14.19,1.16,1.16,0,0,0-.81-.38,1.13,1.13,0,0,0-.67.18V26a1,1,0,0,0-.28-.4A1.12,1.12,0,0,0,29,25v-.26a1.17,1.17,0,0,0,.72-.69,1.6,1.6,0,0,0,.05-.17,1.32,1.32,0,0,0,.43.07,1.25,1.25,0,0,0,.78-.22h.09a1.19,1.19,0,0,0,.32,0,1.13,1.13,0,0,0,.52.39,1.11,1.11,0,0,0,.28.37A1.07,1.07,0,0,0,32.2,24.64Z" transform="translate(0)"/><path d="M38.13,28.58l1.81.89A18.46,18.46,0,0,0,38.13,28.58Z" transform="translate(0)"/><path d="M38.64,7.42c-.13.44-.37,1.07-.67,1.8.36-.74.67-1.37.9-1.8Z" transform="translate(0)"/><path class="a" d="M17.06,70.44Zm1.53-.87c-.13-.33-.23-.59-.32-.8l.38.52A.54.54,0,0,0,18.59,69.57Zm-3.18-.15.06-.06v.09ZM17.18,68l-.07-.08-.17-.2h-.27c-.06,0-.11.08-.16.09a.54.54,0,0,0,0-.44.59.59,0,0,0-.37-.31.61.61,0,0,0,.31-.46.64.64,0,0,0,0-.3.92.92,0,0,0,.07-.17c0-.12.07-.41,0-.41h.27l.23-.18h.06a.56.56,0,0,0,.38-.1l.16.22h.06a.67.67,0,0,0,.06.12l.14.25h.29a.62.62,0,0,0-.14.53.67.67,0,0,0,.45.53h-.1a.6.6,0,0,0-.56.33c-.09.18-.1.2,0,.48-.1-.09-.21-.25-.34-.25h-.22Zm-3.39-.39v-.09l.61-.06-.4.16Zm5.58-.14L19,67.29l.36.06a.45.45,0,0,0,0,.12Zm1.72-3.23h.12a2.41,2.41,0,0,0-.37.42l-.65.28Z" transform="translate(0)"/><path d="M15.38,70.79l-1,2.13C14.88,71.87,15.22,71.19,15.38,70.79Z" transform="translate(0)"/><path d="M13.17,71.18l.67-.73C13.65,70.65,13.42,70.9,13.17,71.18Z" transform="translate(0)"/><path d="M14.61,65.6l-1.68-.73A15.27,15.27,0,0,0,14.61,65.6Z" transform="translate(0)"/><path d="M20.57,71l.43.54Z" transform="translate(0)"/><path d="M21.09,69l1.06.63C21.81,69.45,21.44,69.25,21.09,69Z" transform="translate(0)"/><path d="M16.35,63c-.1-.51-.23-1.09-.37-1.76Z" transform="translate(0)"/><path d="M13,62.81l-.94-.89A12.57,12.57,0,0,0,13,62.81Z" transform="translate(0)"/><path d="M21.79,49.21l0,.1v0Z" transform="translate(0)"/><path d="M32,72c-8.1-2.35-14.84-4.85-11-4.85h.69c-4.41-.33-4.13-.45.92-2.59a4.84,4.84,0,0,1-1.25.42C20.31,65,30.17,59,35,57c-4.47,1.79-12.8,6.69-13.68,6.69-.24,0,.09-.38,1.25-1.32-2.56,2.08-3.89,3.16-4.25,3.16s.34-1.23,1.84-3.78c-1.28,2.17-2,3.38-2.19,3.38s.34-2,1.68-6.51c-.94,3-1.42,4.22-1.56,4.22-.36,0,1.57-8.07,3.7-13.55C19.44,55,18.07,61.69,17.87,61.69c0-.4,0-.81.05-1.21-.38,3.18-.59,4.64-.85,4.64s-.42-.75-.72-2.14c.32,1.57.43,2.37.19,2.37s-1.3-1.56-3.36-4.64c1.1,1.65,1.41,2.27,1.24,2.27C14,63,10.1,58.6,8.77,57.53c1.16,1.37,5.45,6,5.18,6-.31-.22-.61-.47-.9-.72C15.48,65.14,16.4,66,15.93,66s-.89-.27-1.32-.44c2.45,1.12,1.66,1.19-3.4,1.65.61,0,1.08-.07,1.41-.07,3,0-4,1.83-5.78,2.83,1.81-.53,6.14-1.91,6.82-1.91.3,0-.09.26-1.68,1a19.68,19.68,0,0,1,4-1.57c.54,0-.21.88-2.1,2.92.59-.61,1-.87,1.09-.87.53,0-2,4.08-3.89,7.74,1.93-3.17,4.19-7,4.41-7s.07.15-.07.47c.75-1.57,1.18-2.38,1.36-2.38s0,1.12-.36,3.4a4.12,4.12,0,0,1,.12-.61c.07,0-.69,6.44.29,11.55-.55-5.66-.35-11.75.28-11.75.23,0,.52.8.84,2.7-.33-3.47-.53-5.13-.35-5.13s.73,1.61,1.88,4.68c-.8-2.13-1-3-.87-3A68,68,0,0,1,22.63,77c-2-4.09-3.86-7.5-3.46-7.5.15,0,.58.44,1.4,1.46-1.79-2.25-2.54-3.25-2.14-3.25A18.14,18.14,0,0,1,21.09,69c-.4-.25-.52-.37-.4-.37C21.23,68.68,27,71.15,32,72ZM17.36,67.24a1.49,1.49,0,0,0-.1.25l-.14-.16H17l-.06-.13a1.12,1.12,0,0,0-.11-.2,1.57,1.57,0,0,0,.11-.29,1.44,1.44,0,0,0,0-.31l0-.15a1.09,1.09,0,0,0,.23-.14h.07l0,0a1.08,1.08,0,0,0,.19.22,1.51,1.51,0,0,0,0,.39,1.35,1.35,0,0,0,.07.25A1.07,1.07,0,0,0,17.36,67.24Z" transform="translate(0)"/><path d="M17.92,60.48l.23-1.91A17.54,17.54,0,0,0,17.92,60.48Z" transform="translate(0)"/><path d="M60.76,64.87c-.3-.77-.67-1.66-1.08-2.68C60.1,63.22,60.45,64.1,60.76,64.87Z" transform="translate(0)"/><path d="M67.71,77.9c.31.51.68,1.1,1.13,1.79Z" transform="translate(0)"/><path d="M57.36,69.07l-3.12-.82C55.27,68.56,56.31,68.83,57.36,69.07Z" transform="translate(0)"/><path d="M67.13,48.14v.09l0-.07Z" transform="translate(0)"/><path d="M54,65.09l-2-1.21Q52.95,64.53,54,65.09Z" transform="translate(0)"/><path d="M75.7,85.41c-4.75-6-9.12-10.94-8.26-10.93.35,0,1.57.82,4,2.74-4.75-3.9-6.8-5.51-5.71-5.51.8,0,3.33.89,7.72,2.43-3.6-1.27-4.51-1.73-3.8-1.73,1.29,0,8.11,1.63,13.09,2.69-7.63-2.5-19.61-4.59-9.06-4.74H69.44c-5.55,0-4.81-.48,2.14-3.36-.57.2-1.14.38-1.72.53-1,0,8.74-5,12.25-6.82-2.75.86-11.08,5.38-12.29,5.38-.5,0,.23-.78,3.1-2.93-4.8,3.58-7.24,5.41-7.92,5.41s.27-1.57,2.19-4.69C65.54,66.55,64.59,68,64.25,68s.32-3.11,2.16-10.15c-.83,3.16-1.22,4.39-1.35,4.39-.38,0,1.64-10.79,2.06-14-1,3.23-2.74,14-3.37,14-.21,0-.3-1.24-.2-4.42-.23,7-.34,10.13-1,10.13-.48,0-1-1.09-1.79-3.1.93,2.35,1.29,3.53.77,3.53-.69,0-3-2.16-7.61-6.5,2.54,2.39,3.25,3.28,2.87,3.28-1,0-9.41-6.08-12.25-7.51,2.58,1.93,12,8.4,11.42,8.4-.67-.3-1.33-.63-2-1,5.45,3.27,7.39,4.53,6.25,4.53-1-.15-1.93-.34-2.88-.55,5.47,1.49,4.06,1.68-6.17,3.06a30.78,30.78,0,0,1,3.56-.34c3.77,0-8.49,3.47-11.77,5.16,3.57-1.08,12.2-3.86,13.32-3.86.46,0-.33.46-3.23,1.7,4.32-1.84,6.78-2.88,7.57-2.88,1,0-.76,1.8-4.93,6,1.9-1.89,2.89-2.69,3.24-2.69,1,0-3.28,6.52-6.36,12.33,3.27-5.1,7.08-11.35,7.51-11.35.19,0-.26,1.17-1.65,4.11,2.27-4.77,3.42-7.2,3.88-7.2s.18,2.62-.4,8c.37-3.39.66-4.82.92-4.82.55,0,1,6.21,1.87,13.65-.46-7.45-1-13.67-.58-13.67.22,0,.69,1.41,1.52,4.76-1.33-5.38-2-8-1.49-8s1.51,1.66,3.54,4.87c-1.09-1.77-1.42-2.54-1.22-2.54C67,75.36,71,80.13,75.7,85.41ZM63.25,72.54a1.87,1.87,0,0,1-1.52-3,1.49,1.49,0,0,0,0-.21,1.16,1.16,0,0,0,.2-.06,1.87,1.87,0,0,1,1.29-.52h.06a1.13,1.13,0,0,0,.22-.13l-.07,0a1.08,1.08,0,0,0,.14.12,1.87,1.87,0,0,1-.35,3.71Z" transform="translate(0)"/><path d="M67.19,63.88,68,62.57Z" transform="translate(0)"/><path d="M71.58,67c.61-.22,1.2-.46,1.79-.74Z" transform="translate(0)"/><ellipse class="a" cx="17.23" cy="66.72" rx="0.47" ry="0.8"/><ellipse class="a" cx="30.54" cy="24.95" rx="2.06" ry="1.29" transform="translate(-6.81 12.29) rotate(-20.53)"/></svg>