<svg xmlns="http://www.w3.org/2000/svg" viewBox="0 0 169.99 100.02"><defs><style>.a,.e{fill:#fff;}.b,.c,.d,.f{fill:none;}.b,.c,.d,.e{stroke:#fff;}.b,.c,.d,.e,.f{stroke-miterlimit:10;}.b{stroke-width:6px;}.c,.e{stroke-width:2px;}.d{stroke-width:4px;}.f{stroke:#000;stroke-width:3px;}</style></defs><title>neptune</title><path class="a" d="M84.72,98A48,48,0,0,1,82.91,2h1.87a48,48,0,0,1,1.81,96h0C85.93,98,85.3,98,84.72,98Z" transform="translate(-0.01 -0.04)"/><path class="b" d="M41.07,51c.37,6.34,1.31,11.52,3.2,14.52" transform="translate(-0.01 -0.04)"/><path d="M116.83,22a1.5,1.5,0,1,0-1.5-1.5A1.5,1.5,0,0,0,116.83,22Z" transform="translate(-0.01 -0.04)"/><ellipse class="c" cx="85" cy="50.63" rx="95.54" ry="15.79" transform="translate(-13.89 47.35) rotate(-28.9)"/><path class="d" d="M99.47,8.48C115.95,11.82,124.95,29,124.42,30.3" transform="translate(-0.01 -0.04)"/><path class="d" d="M48,74.58C36.37,62.11,40.29,42.2,41.53,41.49" transform="translate(-0.01 -0.04)"/><ellipse class="e" cx="78.65" cy="37.58" rx="41.07" ry="21.25" transform="translate(-8.46 40.89) rotate(-27.74)"/><path d="M85.05.38V4H84.9a46,46,0,0,1,1.58,92h-1.8A46,46,0,1,1,82.95,4h2l.15-4m-.38,0h-2a50,50,0,1,0,2,100h2a50,50,0,0,0-2-100Z" transform="translate(-0.01 -0.04)"/><path class="f" d="M133.25,39.7C101.67,65,61.6,80.39,49.84,85.41" transform="translate(-0.01 -0.04)"/></svg>