<svg xmlns="http://www.w3.org/2000/svg" viewBox="0 0 58.62 184.2"><defs><style>.a{fill:#fff;}.a,.b{stroke:#fff;stroke-miterlimit:10;}.b{fill:none;}</style></defs><title>pioneer</title><rect class="a" x="38.26" y="65.05" width="6.87" height="6"/><rect class="a" x="53.51" y="62.55" width="4.62" height="12.25"/><polygon class="a" points="53.7 86.11 53.82 86.35 35.62 99.19 35.5 98.95 53.7 86.11"/><polygon class="a" points="46.32 63.79 46.32 63.85 33.22 59.04 33.23 58.98 46.32 63.79"/><polygon class="a" points="45.34 58.07 45.34 58.12 32.47 64.51 32.47 64.46 45.34 58.07"/><polygon class="a" points="46.06 71.5 46.05 71.52 33.15 77.88 33.17 77.86 46.06 71.5"/><polygon class="a" points="46.33 58.68 46.3 58.81 32.92 53.84 32.96 53.71 46.33 58.68"/><polygon class="a" points="46.74 78.09 46.71 78.22 33.34 73.26 33.37 73.13 46.74 78.09"/><polygon class="a" points="46.48 76.63 46.5 76.74 34.25 82.97 34.23 82.86 46.48 76.63"/><polygon class="a" points="53.62 51.28 53.56 51.42 36.1 37.51 36.16 37.37 53.62 51.28"/><rect class="a" x="44.99" y="5.83" width="0.09" height="50.61" transform="translate(89.37 62.14) rotate(180)"/><rect class="a" x="51.99" y="5.66" width="0.09" height="50.61" transform="translate(103.37 61.79) rotate(180)"/><rect class="a" x="47.85" y="84.24" width="0.75" height="99.46"/><rect class="a" x="42.51" y="51.18" width="11.45" height="35.17"/><ellipse class="a" cx="35.07" cy="67.6" rx="3.48" ry="31.75"/><ellipse class="a" cx="2.51" cy="67.24" rx="2.21" ry="1.03" transform="translate(-60.58 41.9) rotate(-65.86)"/><line class="b" x1="4.65" y1="68.38" x2="38.21" y2="85.12"/><line class="b" x1="32.67" y1="53.53" x2="4.64" y2="66.2"/><rect class="a" x="3.39" y="65.68" width="1.88" height="3.42" transform="translate(-63.76 71.59) rotate(-90)"/><rect class="a" x="45.27" y="0.76" width="6.51" height="6.25" transform="translate(43.94 52.28) rotate(-90)"/><rect class="a" x="47.75" y="180.95" width="1.12" height="4.5" transform="translate(-135.6 231.38) rotate(-90)"/><rect class="a" x="46.47" y="183.11" height="0.07"/><rect class="a" x="46.47" y="183.11" height="0.13"/></svg>