<svg xmlns="http://www.w3.org/2000/svg" viewBox="0 0 210.01 111.76"><defs><style>.a,.c,.f{fill:#fff;}.b,.d,.e,.g,.h{fill:none;}.b{stroke:#000;}.b,.c,.d,.e,.f,.g,.h{stroke-miterlimit:10;}.b,.c,.e{stroke-width:2px;}.c,.d,.e,.f,.g,.h{stroke:#fff;}.d{stroke-width:4px;}.g{stroke-width:8px;}</style></defs><title>saturn2</title><path class="a" d="M102.06,104.67a48,48,0,1,1,48-48A48,48,0,0,1,102.06,104.67Z" transform="translate(0 0.01)"/><path class="a" d="M208.64,3.75c4.76,9.46-37.79,40.47-95,69.25S6.12,117.46,1.36,108s37.79-40.46,95-69.25S203.88-5.71,208.64,3.75Zm-101.93,62c34.67-17.44,60.45-36.22,57.56-41.95S131,27.57,96.28,45,35.84,81.23,38.72,87,72,83.19,106.71,65.76Z" transform="translate(0 0.01)"/><path class="b" d="M96.28,45c34.67-17.44,65.11-26.93,68-21.2s-22.89,24.51-57.56,42S41.6,92.69,38.72,87,61.61,62.45,96.28,45Z" transform="translate(0 0.01)"/><path class="b" d="M96.38,38.75C153.62,10,203.88-5.71,208.64,3.75s-37.79,40.47-95,69.25S6.12,117.46,1.36,108,39.15,67.54,96.38,38.75Z" transform="translate(0 0.01)"/><path d="M102.06,10.67a46,46,0,1,1-46,46,46,46,0,0,1,46-46m0-4a50,50,0,1,0,50,50A50,50,0,0,0,102.06,6.67Z" transform="translate(0 0.01)"/><ellipse class="c" cx="96.48" cy="44.03" rx="41.07" ry="21.25" transform="translate(-9.55 45.9) rotate(-25.54)"/><path class="c" d="M118.41,15.74c16.34,4,24.67,21.58,24.09,22.76" transform="translate(0 0.01)"/><path class="d" d="M58.42,56.09c.12,6.35.87,11.57,2.65,14.64" transform="translate(0 0.01)"/><path class="e" d="M64.42,79.82C53.3,66.91,58,47.17,59.25,46.51" transform="translate(0 0.01)"/><path class="f" d="M135.29,29.9a1.5,1.5,0,1,0-1.5-1.5A1.5,1.5,0,0,0,135.29,29.9Z" transform="translate(0 0.01)"/><path class="g" d="M185.83,14.55c5.33,19-148,95.67-161.67,84.67" transform="translate(0 0.01)"/><line class="h" x1="59.29" y1="87.15" x2="68.46" y2="84.14"/><line class="h" x1="146.01" y1="44.8" x2="150.74" y2="41.48"/><line class="h" x1="151.87" y1="50.43" x2="147.46" y2="53.02"/></svg>