<svg xmlns="http://www.w3.org/2000/svg" viewBox="0 0 100 168.18"><defs><style>.a,.b,.g{fill:#fff;}.a,.c{stroke:#000;}.a,.c,.d,.e,.f,.g{stroke-miterlimit:10;}.c,.d,.e,.f{fill:none;}.c,.e,.g{stroke-width:2px;}.d,.e,.f,.g{stroke:#fff;}.f{stroke-width:4px;}</style></defs><title>uranus</title><path class="a" d="M50.05,133.14A48,48,0,1,1,96.38,97.55,48,48,0,0,1,50.05,133.14Z" transform="translate(-0.02 0.01)"/><path class="b" d="M96.05,84.69a45.49,45.49,0,0,1-1.58,12.39A46,46,0,1,1,50,39.08v.5h.48A45.57,45.57,0,0,1,96.05,84.69Z" transform="translate(-0.02 0.01)"/><path d="M50,39.08v0a46,46,0,1,0,44.46,58,45.59,45.59,0,0,0-44-57.5H50v-.5Zm0-4a50,50,0,1,1-50,50A50.07,50.07,0,0,1,50,35.08Z" transform="translate(-0.02 0.01)"/><polygon points="50 35.11 50 39.09 49.99 39.09 49.99 35.59 50 35.11"/><path class="b" d="M64.72,81.24c9.5,45.86,11.06,84.31,3.48,85.88s-21.42-34.34-30.92-80.2S26.23,2.61,33.81,1,55.23,35.38,64.72,81.24Zm1.17,78c6.74-1.39,5.35-35.59-3.09-76.38S42,10.18,35.3,11.57,30,47.17,38.39,88,59.15,160.68,65.89,159.28Z" transform="translate(-0.02 0.01)"/><path class="c" d="M35.3,11.57C42,10.18,54.35,42.11,62.8,82.9s9.83,75,3.09,76.38-19-30.54-27.5-71.33S28.56,13,35.3,11.57Z" transform="translate(-0.02 0.01)"/><path class="c" d="M33.81,1c7.57-1.56,21.42,34.34,30.91,80.2s11.06,84.31,3.48,85.88-21.42-34.34-30.92-80.2S26.23,2.61,33.81,1Z" transform="translate(-0.02 0.01)"/><path class="d" d="M33.45,3.25C51,3.05,80.75,144.83,69.11,161.71" transform="translate(-0.02 0.01)"/><path class="e" d="M62.68,127.47c-15.35,7.4-33.2-2.23-33.51-3.63" transform="translate(-0.02 0.01)"/><path class="f" d="M38.16,126.13c6.17,1.53,11.4,2.15,14.82,1.23" transform="translate(-0.02 0.01)"/><path class="f" d="M14.68,59.75C22.76,44.78,42,41.25,43,42.13" transform="translate(-0.02 0.01)"/><ellipse class="g" cx="35.9" cy="87.14" rx="21.17" ry="40.92" transform="translate(-15.17 7.93) rotate(-10.41)"/></svg>