<svg xmlns="http://www.w3.org/2000/svg" viewBox="0 0 100 100"><defs><style>.a{fill:#fff;}.b{fill:none;stroke:#000;stroke-miterlimit:10;stroke-width:2px;}</style></defs><title>venus</title><path class="a" d="M65.06,114.29a48,48,0,1,1,48-48A48.05,48.05,0,0,1,65.06,114.29Z" transform="translate(-15.06 -16.29)"/><path d="M65.06,20.29a46,46,0,1,1-46,46,46.05,46.05,0,0,1,46-46m0-4a50,50,0,1,0,50,50,50,50,0,0,0-50-50Z" transform="translate(-15.06 -16.29)"/><path class="b" d="M32.17,101.83c0-25.24,35-45.67,78.33-45.67" transform="translate(-15.06 -16.29)"/><path class="b" d="M23.17,43.17c0,3.68,39.83,6.6,86.81,6.6" transform="translate(-15.06 -16.29)"/></svg>