<svg xmlns="http://www.w3.org/2000/svg" viewBox="0 0 72.92 210.72"><defs><style>.a{fill:#fff;}.a,.b{stroke:#fff;stroke-miterlimit:10;}.b{fill:none;}</style></defs><title>voyager</title><rect class="a" x="43.12" y="71.84" width="4.62" height="22.5"/><rect class="a" x="64.51" y="93.19" width="0.54" height="15.5" transform="translate(146.26 12.76) rotate(76.14)"/><rect class="a" x="64.28" y="89.99" width="0.52" height="15.5" transform="translate(169.68 47.13) rotate(98.44)"/><rect class="a" x="65.34" y="62.69" width="0.54" height="15.5" transform="translate(117.28 -11.25) rotate(76.14)"/><rect class="a" x="65.11" y="59.49" width="0.52" height="15.5" transform="translate(140.46 11.33) rotate(98.44)"/><rect class="a" x="65.89" y="79.4" width="0.54" height="15.5" transform="translate(115.36 -11.17) rotate(64.52)"/><rect class="a" x="65.65" y="73.2" width="0.52" height="15.5" transform="translate(163.88 46.68) rotate(110.64)"/><rect class="a" x="54.99" y="119.98" width="1.44" height="5.7" transform="translate(-79.3 137.04) rotate(-72.13)"/><rect class="a" x="51.62" y="101.47" width="3.12" height="19.94"/><rect class="a" x="50.58" y="0.5" width="0.79" height="64.52"/><rect class="a" x="25.45" y="96.3" width="2.16" height="119.43" transform="translate(63.58 1.29) rotate(23.57)"/><rect class="a" x="46.37" y="63.72" width="11.45" height="38.67"/><ellipse class="a" cx="37.04" cy="83.02" rx="6.95" ry="31.75"/><ellipse class="a" cx="8.07" cy="80.2" rx="1.96" ry="4.29"/><line class="b" x1="4.74" y1="80.43" x2="37.02" y2="69.03"/><line class="b" x1="4.39" y1="79.8" x2="37.94" y2="96.53"/><line class="b" x1="4.39" y1="80.8" x2="45.74" y2="80.97"/></svg>