<svg xmlns="http://www.w3.org/2000/svg" viewBox="0 0 100 100"><defs><style>.a{fill:#fff;}.b,.c,.d,.e,.f{fill:none;}.b,.c,.d,.e,.f,.g{stroke:#000;stroke-miterlimit:10;}.b{stroke-width:9px;}.d{stroke-width:10px;}.e{stroke-width:5px;}.f{stroke-width:2px;}</style></defs><title>jupiter</title><path class="a" d="M65.06,114.29a48,48,0,1,1,48-48A48.05,48.05,0,0,1,65.06,114.29Z" transform="translate(-15.06 -16.29)"/><path d="M65.06,20.29a46,46,0,1,1-46,46,46.05,46.05,0,0,1,46-46m0-4a50,50,0,1,0,50,50,50,50,0,0,0-50-50Z" transform="translate(-15.06 -16.29)"/><line class="b" x1="16.6" y1="17.38" x2="83.27" y2="17.38"/><line class="c" x1="8.5" y1="24.71" x2="92.69" y2="24.71"/><line class="d" x1="2.69" y1="47.71" x2="96.69" y2="47.71"/><line class="e" x1="7.1" y1="71.21" x2="93.1" y2="71.21"/><line class="c" x1="11.19" y1="76.21" x2="88.69" y2="76.21"/><line class="f" x1="19.94" y1="88.04" x2="80.6" y2="88.04"/><ellipse class="g" cx="68.69" cy="64.46" rx="11.5" ry="5.5"/><line class="e" x1="12.94" y1="19.36" x2="17.27" y2="19.38"/><line class="e" x1="82.31" y1="19.4" x2="86.56" y2="19.4"/><path d="M58.79,110.27c.21,3.84,5.54,3.54,7.5,1.17a1.53,1.53,0,0,0-.66-2.51,3.75,3.75,0,0,0-3.82.42,1.52,1.52,0,0,0,0,2.59c4.07,3.05,7.18-1.73,11.42-1.44v-3c-2.59.32-7.63.55-8,3.82a1.51,1.51,0,0,0,1.1,1.45c1.15.34,1.76-.08,2.8-.54A22.89,22.89,0,0,1,74.85,111c1.9-.34,1.09-3.21-.8-2.89a14.5,14.5,0,0,0-5.76,2.27c-1,.65-1,2.47.36,2.74a13.16,13.16,0,0,0,5.54.34c2.55-.61,4.39-2.57,7-3.2,1.88-.45,1.08-3.34-.8-2.89-4,1-6.5,3.74-10.94,2.86l.36,2.74a12.61,12.61,0,0,1,5-2l-.8-2.89c-1.42.25-2.88-.32-4.27.16-.39.13-2.53,1.69-2.65,1.65l1.1,1.45c0,.23,4.89-.81,5-.82a1.5,1.5,0,0,0,0-3,9.15,9.15,0,0,0-4.16.54c-1.68.65-3.68,2.85-5.75,1.31v2.59l1.51-.11-.66-2.51-2.38.95c-.1-1.92-3.1-1.93-3,0Z" transform="translate(-15.06 -16.29)"/><path d="M79.77,111.06c2.88-1.69,6.31-2.07,9-4a1.5,1.5,0,0,0-1.51-2.59c-3,1.46-5.76,1.57-9,2.32-1.55.36-3.5,1.5-5,1.39l1.06,2.56c2.84-2.57,8.2-2.59,11.79-3.17,1.68-.27,1.26-3-.4-2.95A53.69,53.69,0,0,0,67.9,108l1.69,2.2c1.09-2.24,5.51-1.55,7.51-1.46,1.61.07,1.87-2,.76-2.8-3.35-2.41-6.57-.63-10.3-.19s-7.11.25-9.91,3.32a1.51,1.51,0,0,0,1.46,2.51l7.8-1.32-1.16-2.74c-6.51,2.78-13.12,2.61-20,1.61-1.89-.28-2.7,2.61-.8,2.89,7.84,1.15,14.93,1.24,22.3-1.91,1.68-.72.38-3-1.16-2.74l-7.8,1.32,1.46,2.51c2.66-2.93,6.26-2.1,9.7-2.68,2.28-.38,4.55-1.65,6.87,0l.76-2.8c-3.3-.15-8.41-.54-10.1,2.95-.52,1.06.36,2.7,1.69,2.2a51.41,51.41,0,0,1,17-3.25l-.4-2.95c-4.49.73-9.59.76-13.11,3.94a1.52,1.52,0,0,0,1.06,2.56c2.56.19,4.84-1.14,7.33-1.62a31.82,31.82,0,0,0,8.18-2.5l-1.51-2.59c-2.62,1.86-6.18,2.32-9,4a1.5,1.5,0,0,0,1.51,2.59Z" transform="translate(-15.06 -16.29)"/><path d="M40.27,106.94c6.3.75,13.13,2.4,19.46,1.7,2.7-.3,5.35-1.11,8.05-1.38,3.74-.38,7.37.48,11.06,1.1,1.89.32,2.7-2.57.8-2.89-5.72-1-10.25-1.52-16-.53-7.92,1.38-15.47-.06-23.4-1-1.91-.23-1.9,2.77,0,3Z" transform="translate(-15.06 -16.29)"/><path d="M53.51,107.31q2.37-.23,4.74-.34c1.92-.09,1.93-3.09,0-3q-2.38.11-4.74.34a1.54,1.54,0,0,0-1.5,1.5,1.51,1.51,0,0,0,1.5,1.5Z" transform="translate(-15.06 -16.29)"/><path d="M58.32,107.2a16.48,16.48,0,0,1-6.49.16c-1.62-.22-4.14.21-5.54-.59a1.5,1.5,0,0,0-1.51,2.59c2.15,1.23,4.76.7,7.14,1a18.61,18.61,0,0,0,7.21-.29c1.88-.44,1.08-3.34-.8-2.89Z" transform="translate(-15.06 -16.29)"/></svg>