<svg xmlns="http://www.w3.org/2000/svg" viewBox="0 0 100 100"><defs><style>.a{fill:#fff;}.b,.c,.d,.e{fill:none;stroke:#000;stroke-miterlimit:10;}.b{stroke-width:2px;}.b,.c,.d{fill-rule:evenodd;}.d{stroke-width:3px;}</style></defs><title>mars</title><path class="a" d="M65.06,114.29a48,48,0,1,1,48-48A48.05,48.05,0,0,1,65.06,114.29Z" transform="translate(-15.06 -16.29)"/><path d="M65.06,20.29a46,46,0,1,1-46,46,46.05,46.05,0,0,1,46-46m0-4a50,50,0,1,0,50,50,50,50,0,0,0-50-50Z" transform="translate(-15.06 -16.29)"/><path class="b" d="M48.17,70c-1.21-.17,1.49.55,2.29.67,1.47.22,3-.27,4.41-.36,2.35-.14,4.77,0,7.12,0A52.15,52.15,0,0,1,68,71c1.39.16,2.88-.28,4.11.42q.07.27.12.54c2.25.46,3.76,2.18,5.94,2.14,2.83-.05,5.24.79,8.07,1.43a38.81,38.81,0,0,0,9.85.83c2.41,0,4.6-.18,6.41,1" transform="translate(-15.06 -16.29)"/><path class="b" d="M52.63,70.63c1.68-.23,7.6,1.27,9.25,1.05,1.87-.25,4.64-1,6.47-.19s4.39,3.16,6.49,3.54c1.86.33,4-.65,5.82-.34,1.18.2,2.36.51,3.52.66s2.21-.14,3.24.09c1.33.3,3,.72,7.75,1.91" transform="translate(-15.06 -16.29)"/><path class="b" d="M54.29,70.29c1.93,0,8.22-1,10.06-1.32,1.64-.24,2.29.29,3.92.37a10.74,10.74,0,0,0,3.32-.69C74,68,73.76,69,75.43,70.37a14.64,14.64,0,0,0,4,2.14A63.5,63.5,0,0,0,92.5,75c3.52.26,4.83,1,8.33,1" transform="translate(-15.06 -16.29)"/><path class="b" d="M71.21,70.13a4.26,4.26,0,0,1,2.36.85c.32.24.5.59.82.82a8.21,8.21,0,0,0,1,.43,2.35,2.35,0,0,1,.52.4c.1.1.28.36.37.42a1.49,1.49,0,0,0,.94.16" transform="translate(-15.06 -16.29)"/><path class="b" d="M78.13,73.13c-.19-.11-.54-.36-.75-.33" transform="translate(-15.06 -16.29)"/><path class="b" d="M79.38,73.29a7.73,7.73,0,0,1-1.56-.19,15.59,15.59,0,0,1-2.06-.3,7.23,7.23,0,0,0-1.8-.17" transform="translate(-15.06 -16.29)"/><path class="b" d="M72.54,69.71c-.47-.31-1,.28-1.38.46a4.75,4.75,0,0,0-.87.45" transform="translate(-15.06 -16.29)"/><path class="b" d="M73,69.79c.1,0,.12-.13.08-.25" transform="translate(-15.06 -16.29)"/><path class="b" d="M73.21,72.29c0,.58.94,1.53,1.42,1.83" transform="translate(-15.06 -16.29)"/><path class="c" d="M73.21,70.29a1.51,1.51,0,0,1-.5-1.08" transform="translate(-15.06 -16.29)"/><path class="c" d="M42.47,69.47c1.58,0,4.38,1.56,5.89.64-2.69-1.23-8.94-.72-11.89-1.32,1.74.37,4.7-.08,5.81.13.92.17,1.56.6,2.54.71s2.1.31,3.12.42" transform="translate(-15.06 -16.29)"/><path class="c" d="M94.63,76.88c-2.5-.25,3.62.49,5.49,1.23s2.55,0,4.51,0" transform="translate(-15.06 -16.29)"/><path class="c" d="M97.63,76.88c1.38-.28,2.23.48,3.69.5a9.93,9.93,0,0,1,2.58,0c.79.28,1,1.08,2,1.26" transform="translate(-15.06 -16.29)"/><path class="c" d="M97.38,76.88c.87-.17-.39.56.41.78,1,.27,1.94.48,2.84.72" transform="translate(-15.06 -16.29)"/><path class="c" d="M45.13,69.63a24.31,24.31,0,0,1-5.59-.52,14.18,14.18,0,0,0-4.15-.22c-.94.07-2.51-.44-3.49-.22a.88.88,0,0,1-1-.34c-.23-.35.15,0-.82-.94" transform="translate(-15.06 -16.29)"/><path class="d" d="M56.38,70.29c.66,1.19,9.79,3.05,11,3.39,2.34.66,4.45,1.81,7,2.2a52.06,52.06,0,0,0,9.21.24c1.89,0,6.9-.35,8.76-.24" transform="translate(-15.06 -16.29)"/><ellipse class="e" cx="13.69" cy="33.46" rx="1.67" ry="1"/><ellipse class="e" cx="7.35" cy="44.63" rx="0.67" ry="0.5"/></svg>