<svg xmlns="http://www.w3.org/2000/svg" viewBox="0 0 100 100"><defs><style>.a{fill:#fff;}</style></defs><title>mercury</title><path d="M50,4A46,46,0,1,1,4,50,46,46,0,0,1,50,4m0-4a50,50,0,1,0,50,50A50,50,0,0,0,50,0Z" transform="translate(0)"/><path class="a" d="M61,64.12a2.24,2.24,0,0,0-1-.23h-.18a2.18,2.18,0,0,0-.63-.32v-.1a2.26,2.26,0,0,0,.08-1.33,3.2,3.2,0,0,0-.1-.4,2.36,2.36,0,0,0,1.08-1.2,2.61,2.61,0,0,0,.2-.79,3.2,3.2,0,0,0,.48,0,2,2,0,0,0,1.88-.82l.25.36h.49a3.11,3.11,0,0,0,.13.44,2.15,2.15,0,0,0,.36.62,2.21,2.21,0,0,0-.52,1.43,3.38,3.38,0,0,0,0,.52,2.38,2.38,0,0,0-1.6,1.13l-.06.09a2.23,2.23,0,0,0-.88.59Z" transform="translate(0)"/><path class="a" d="M50,2A48,48,0,0,0,6.35,30C10,33.12,17.57,41,18.08,40.49c.2-.19-.61-1.57-3-4.82,5,6.92,7.36,10.09,7.9,9.58s-.35-3.41-1.81-8.9c1.56,5.81,2.31,8.86,2.88,8.32s.82-5.1,1.35-14.52c-.28,5.09-.35,7.08-.18,6.91.45-.43,2.52-15.24,6.64-27.84C28,21.9,24.8,40.72,25.77,39.79c.34-.32,1.22-3.13,2.71-9.47-2.45,11-3.42,15.28-2.57,14.47.55-.53,1.85-3.2,4-7.67-5.11,10.42-5.5,11.22,2.86,3.25l2.29-2.19c-9.41,9,.25,1.38,10.64-4.66-1.76-2.81-3.64-5.76-5.6-8.76v-.07a97.91,97.91,0,0,1,6.27,8.44c1.19-.68,2.38-1.33,3.55-1.93-1.16.6-2.35,1.25-3.54,1.94,6.19,9.23,10.82,18.55,11.38,18.55.21,0-.18-1.37-1.31-4.71,2.44,7.13,3.67,10.8,4.44,10.8s1-4.17,1.37-12.81c-.24,5.28-.12,7.48.29,7.48.9,0,3.22-10.35,6.46-22.27C66.51,41.86,64.33,52,65.17,52c.41,0,1.52-2.34,3.64-8-3.35,9-5.14,13.41-4.61,13.41s3.17-3.93,8.63-11.7C69.68,50.88,69,53,69.83,53c2.06,0,13.11-12.33,22-24.93C84.45,40.9,70.94,53.56,71.23,53.56a14.51,14.51,0,0,0,1.41-1.13c-5.52,4.66-7.82,6.78-6.82,6.78s5.29-2,13-5.68c-5.74,2.77-7.55,3.77-6.88,3.77,1.31,0,12.58-4.2,22-7.53-12,5.19-26.73,10.09-21.2,10.09a44.18,44.18,0,0,0,5.48-.56c-15.82,2.28-16.63,2.41-3.78,5.94.75.18,1.5.38,2.24.62l-2.24-.62c-1-.22-1.92-.41-2.89-.53-2.43,0,12.14,5.77,17.57,8.1C84.82,72,73.46,67.12,71,67.12c-1.09,0-.34,1,3.91,4-6.34-4.46-9.57-6.79-10.88-6.79s-.22,2.31,2,7.06l.86,1.83-.86-1.83c-1.82-3.84-2.9-6-3.42-6-.78,0-.34,4.76.66,15.68-.44-4.82-.73-6.7-.9-6.7-.53,0-.08,17.07-.17,22-.85-4.75-.85-21.68-1.85-21.68-.35,0-.83,2-1.52,7.11C60.31,70.91,61,65.91,60,65.91c-.79,0-2.7,3.48-6.21,9.88,3.7-6.79,5.7-10.29,4.7-10.29s-5.28,4-14.12,12.31c4.77-4.49,6.6-6.27,6.29-6.27-.74,0-13.75,10.28-27.61,18.2A48,48,0,1,0,50,2Z" transform="translate(0)"/><path class="a" d="M27.61,55.88c-.06.06-.06.24,0,.54l.85.2C28,56.06,27.71,55.77,27.61,55.88Z" transform="translate(0)"/><path class="a" d="M26.85,50.31c-.41.39,1.45,2.62,5.39,7.14a104.49,104.49,0,0,0,17,2.3c3,0,2.93-.75-3.07-2.48C52.33,59,56,60.11,57.56,60.11c2.11,0,.33-2-4.67-6.83,2,1.87,3.22,2.71,3.84,2.71,2.11,0-3.14-9.91-11-22.44A89.85,89.85,0,0,0,32.38,43c-1.7,1.62-1.25,2,3.06-.25-4.4,2.28-7,3.66-7.92,4.49-1.19,1.13.88,1.29,6.3,1.34-2.12,0-3.27.2-3.62.54-1.46,1.39,11.29,5.22,26.1,8.68l0,0c-11-1.21-24-6.13-24.45-5.73-.12.11.84.68,3.27,2C30,51.31,27.29,49.9,26.85,50.31Zm7-1.79,1.77,0Zm17.45,3.18,1.63,1.59Q52.15,52.6,51.26,51.71Z" transform="translate(0)"/><path class="a" d="M25.25,52.31c-.16.16,0,1.34.27,3.59l1.78.45C26.08,53.51,25.44,52.12,25.25,52.31Z" transform="translate(0)"/><path class="a" d="M52.62,68.54c-.6,0-3.91,1.83-10.91,6.41,12-8,16.73-11.18,15.22-11.18-1,0-4.56,1.34-10.56,3.54,14-5.16,15.06-5.56.22-5.56H42.52c15.32,0,3.43-1.26-10.21-4.23l.65.75-.66-.75L29.83,57c1.49,2.9,4.3,7.79,7.27,13.26C33.37,64.09,30,58.62,28.48,56.65l-.86-.21a44.16,44.16,0,0,0,2.23,5.9c-1-2.43-1.88-4.42-2.54-6l-1.79-.46c.26,1.83.66,4.36,1.15,7.63-1-4.63-1.78-6.23-2.27-5.76-1.16,1.11-.77,14,1,25.85-2.72-11.16-1.91-25.55-2.07-25.39a11.31,11.31,0,0,0-.19,1.39c.19-1.71.33-3.13.42-4.25l-1-.3,1,.3c.21-2.54.17-3.6-.22-3.23-.56.54-1.9,4-4.28,10.18,1.75-4.64,2.23-6.18,1.85-5.82-.74.7-4.83,9.12-8.35,16.06,4-9.38,9.64-20,6.53-17.07a34.41,34.41,0,0,0-2.79,3.26c8.11-10.32,8.11-10.32-2.66-4.52a23.06,23.06,0,0,0,3.51-2.11c1.37-1.3-9.94,3.27-14.25,4.87,2.84-1.87,11.88-5.2,13.25-6.51.61-.59-.35-.75-4.35-.15,6-.89,9-1.31,9.78-2s-1.12-1.42-4.94-2.91l-1.46-.56,1.46.56c3.1,1.19,4.86,1.82,5.15,1.54S19.44,44.08,13,38.46c2.84,2.48,4,3.38,4.11,3.29.27-.26-7.47-8-10.84-11.55A48,48,0,0,0,23,89.71C37.38,81.26,54.22,68.54,52.62,68.54Z" transform="translate(0)"/><path class="a" d="M28.78,54.21c-.18.17.24,1.16,1,2.72l2.43.52C30,55,29,54,28.78,54.21Z" transform="translate(0)"/></svg>