<svg xmlns="http://www.w3.org/2000/svg" viewBox="0 0 100 100"><defs><style>.a{fill:#fff;}</style></defs><title>mercury2</title><path class="a" d="M65.06,114.29a48,48,0,1,1,48-48A48.05,48.05,0,0,1,65.06,114.29Z" transform="translate(-15.06 -16.29)"/><path d="M65.06,20.29a46,46,0,1,1-46,46,46.05,46.05,0,0,1,46-46m0-4a50,50,0,1,0,50,50,50,50,0,0,0-50-50Z" transform="translate(-15.06 -16.29)"/><path class="a" d="M76.08,80.41a2.24,2.24,0,0,0-1-.23H74.9a2.18,2.18,0,0,0-.63-.32l0-.1a2.26,2.26,0,0,0,.08-1.33,3.2,3.2,0,0,0-.1-.4,2.36,2.36,0,0,0,1.08-1.2,2.61,2.61,0,0,0,.2-.79,3.2,3.2,0,0,0,.48,0,2,2,0,0,0,1.88-.82l.25.36.49,0a3.11,3.11,0,0,0,.13.44,2.15,2.15,0,0,0,.36.62,2.21,2.21,0,0,0-.52,1.43,3.38,3.38,0,0,0,0,.52A2.38,2.38,0,0,0,77,79.72l-.06.09a2.23,2.23,0,0,0-.88.59Z" transform="translate(-15.06 -16.29)"/><path d="M55.21,41.07C65.91,57.42,74.38,72.28,71.79,72.28c-.62,0-1.86-.84-3.84-2.71,5,4.85,6.78,6.83,4.67,6.83-1.55,0-5.23-1.06-11.35-2.84,6,1.73,6.08,2.48,3.07,2.48-4.72,0-17.15-1.85-26.76-4.68,16.14,4.76,39,6.64,20,6.68h4.07c14.84,0,13.76.4-.22,5.56,6-2.2,9.58-3.54,10.56-3.54,1.51,0-3.22,3.16-15.22,11.18,7-4.58,10.31-6.41,10.91-6.41,1.72,0-17.89,14.71-32.79,23,15-8.06,30.05-20,30.85-20,.31,0-1.52,1.78-6.29,6.27,8.84-8.3,13.12-12.31,14.12-12.31s-1,3.5-4.7,10.29c3.51-6.4,5.42-9.88,6.21-9.88.95,0,.29,5-1.15,15.91C74.62,93,75.1,91,75.45,91c1,0,1,16.93,1.85,21.68.09-4.93-.36-22,.17-22,.17,0,.46,1.88.9,6.7-1-10.92-1.44-15.68-.66-15.68.6,0,1.93,2.82,4.28,7.81-2.84-6-4.18-8.89-2.87-8.89S83.66,82.95,90,87.41c-4.25-3-5-4-3.91-4,2.43,0,13.79,4.91,18.09,5.69C98.75,86.77,84.18,81,86.61,81a29.62,29.62,0,0,1,5.13,1.15C76.59,78,76.59,78,93.28,75.59a44.19,44.19,0,0,1-5.48.56c-5.53,0,9.17-4.9,21.2-10.09-9.42,3.33-20.69,7.53-22,7.53-.67,0,1.14-1,6.88-3.77-7.71,3.66-12,5.68-13,5.68s1.3-2.12,6.82-6.78a14.51,14.51,0,0,1-1.41,1.13c-.29,0,13.22-12.66,20.58-25.45C98,57,86.95,69.33,84.89,69.33c-.86,0-.15-2.16,3-7.37-5.46,7.77-8.1,11.7-8.63,11.7s1.26-4.44,4.61-13.41c-2.12,5.66-3.23,8-3.64,8-.84,0,1.34-10.1,3.89-21.76-3.24,11.92-5.56,22.27-6.46,22.27-.41,0-.53-2.2-.29-7.48C77,69.92,76.77,74.09,76,74.09s-2-3.67-4.44-10.8C72.69,66.63,73.08,68,72.87,68c-.74,0-8.53-16.16-17.66-27ZM91.53,65.47h0Zm0,0-3.85,3.24,3.85-3.24ZM66.32,68q.89.89,1.63,1.59L66.32,68ZM82,89.49l0,0,0,0Zm0,0v0ZM68.89,92.06h0Zm0,0v0Zm0,0v0Zm0,0h0Zm0,0h0Zm0,0h0Z" transform="translate(-15.06 -16.29)"/></svg>