<svg xmlns="http://www.w3.org/2000/svg" viewBox="0 0 170 100"><defs><style>.a,.b,.c{stroke:#000;}.a,.b,.c,.d{stroke-miterlimit:10;}.a,.b{stroke-width:2px;}.b,.c,.d{fill:none;}.c{stroke-width:4px;}.d{stroke:#fff;}</style></defs><title>neptune</title><path d="M119,135a48,48,0,0,1-1.81-96c.63,0,1.25,0,1.87,0a48,48,0,0,1,1.81,96C120.21,134.94,119.58,135,119,135Z" transform="translate(-34.28 -36.95)"/><path d="M119.33,37.33V41h-.15a46,46,0,0,1,1.58,92c-.6,0-1.21,0-1.8,0a46,46,0,0,1-1.73-92c.6,0,1.35,0,2,0l.15-4M119,37c-.65,0-1.3,0-2,0A50,50,0,0,0,119,137c.65,0,1.3,0,2,0A50,50,0,0,0,119,37Z" transform="translate(-34.28 -36.95)"/><ellipse class="a" cx="112.93" cy="74.53" rx="41.07" ry="21.25" transform="translate(-55.99 24.18) rotate(-27.74)"/><path class="b" d="M133.75,45.43C150.23,48.77,159.23,66,158.7,67.25" transform="translate(-34.28 -36.95)"/><path class="c" d="M75.35,88c.37,6.34,1.31,11.52,3.2,14.52" transform="translate(-34.28 -36.95)"/><path class="b" d="M82.26,111.53c-11.61-12.47-7.69-32.38-6.45-33.09" transform="translate(-34.28 -36.95)"/><path d="M151.11,58.93a1.5,1.5,0,0,0,0-3,1.5,1.5,0,0,0,0,3Z" transform="translate(-34.28 -36.95)"/><ellipse class="b" cx="119.28" cy="87.6" rx="95.54" ry="15.79" transform="translate(-61.76 31.59) rotate(-28.9)"/><path class="d" d="M200.43,41.76C206.5,60.61,63.8,139.84,41.75,132.94" transform="translate(-34.28 -36.95)"/></svg>