<svg xmlns="http://www.w3.org/2000/svg" viewBox="0 0 210 111.76"><defs><style>.a,.c{fill:#fff;}.b,.d,.e,.f,.g{fill:none;}.b{stroke:#000;}.b,.c,.d,.e,.f,.g{stroke-miterlimit:10;}.b,.c,.d{stroke-width:2px;}.c,.d,.e,.f,.g{stroke:#fff;}.e{stroke-width:4px;}.f{stroke-width:8px;}</style></defs><title>saturn</title><path class="a" d="M120.31,114.29a48,48,0,1,1,48-48A48.05,48.05,0,0,1,120.31,114.29Z" transform="translate(-18.25 -9.62)"/><path d="M120.31,20.29a46,46,0,1,1-46,46,46.05,46.05,0,0,1,46-46m0-4a50,50,0,1,0,50,50,50,50,0,0,0-50-50Z" transform="translate(-18.25 -9.62)"/><ellipse class="b" cx="119.75" cy="65" rx="70.27" ry="11.61" transform="translate(-34.69 51.12) rotate(-26.7)"/><ellipse class="b" cx="123.25" cy="65.5" rx="116.01" ry="19.17" transform="translate(-34.54 52.74) rotate(-26.7)"/><ellipse class="c" cx="114.73" cy="53.64" rx="41.07" ry="21.25" transform="translate(-30.17 45.1) rotate(-25.54)"/><path class="d" d="M136.66,25.36c16.34,4,24.67,21.58,24.09,22.76" transform="translate(-18.25 -9.62)"/><path class="e" d="M76.67,65.71c.12,6.35.87,11.57,2.65,14.64" transform="translate(-18.25 -9.62)"/><path class="d" d="M82.67,89.44C71.55,76.53,76.23,56.79,77.5,56.13" transform="translate(-18.25 -9.62)"/><path class="a" d="M153.54,39.52a1.5,1.5,0,0,0,0-3,1.5,1.5,0,0,0,0,3Z" transform="translate(-18.25 -9.62)"/><path class="f" d="M204.08,24.17c5.33,19-148,95.67-161.67,84.67" transform="translate(-18.25 -9.62)"/><line class="g" x1="59.29" y1="87.14" x2="68.46" y2="84.13"/><line class="g" x1="146.01" y1="44.79" x2="150.74" y2="41.47"/><line class="g" x1="151.87" y1="50.42" x2="147.46" y2="53.01"/></svg>