<svg xmlns="http://www.w3.org/2000/svg" viewBox="0 0 127.52 127.52"><defs><style>.a{fill:#fff;}</style></defs><title>sun</title><path class="a" d="M72.19,117.83c-.21,0-1-.28-1.91-1.56L66,110.48l-2.88,7.33a6.3,6.3,0,0,0-5.07-2.5,6.73,6.73,0,0,0-4,1.34l-.92-7.84-5.63,4.49a4,4,0,0,1-2.13,1c-.42,0-.87-1-1-2.34l-.84-7.15-6.17,4.91A7.25,7.25,0,0,0,36.29,107a6.35,6.35,0,0,0-5.43-2.82q-.37,0-.75,0L33.23,97l-7.12,1.07a7,7,0,0,1-1,.08c-.92,0-1.36-.23-1.44-.34s-.25-.94.4-2.44l2.85-6.61-7.8,1.17a6.63,6.63,0,0,0,.15-4.51,6.46,6.46,0,0,0-3.67-3.9l6.34-4.72-6.7-2.63c-1.44-.56-2-1.23-2-1.45s.32-1,1.56-1.93l5.78-4.3L13.19,63.6a6.47,6.47,0,0,0,1.17-9l7.83-.91L17.71,48c-1-1.21-1.1-2.06-1-2.26s.78-.71,2.32-.89L26.16,44l-4.92-6.17a6.42,6.42,0,0,0,4.92-3.53,6.87,6.87,0,0,0,.61-3.71L34,33.73l-1.07-7.12a3.52,3.52,0,0,1,.22-2.44c.1-.12.44-.13.55-.13a5,5,0,0,1,1.93.49l6.61,2.85-1.17-7.8a7.42,7.42,0,0,0,2.54.46,6.18,6.18,0,0,0,4.74-2.19,7.48,7.48,0,0,0,1.13-1.79l4.72,6.34,2.63-6.7c.6-1.54,1.29-2,1.47-2s1,.28,1.91,1.56L64.53,21l2.88-7.33a6.3,6.3,0,0,0,5.07,2.5,6.73,6.73,0,0,0,4-1.34l.92,7.84L83,18.2a4,4,0,0,1,2.13-1c.42,0,.88,1,1,2.34L87,26.65l6.17-4.91a7.25,7.25,0,0,0,1.07,2.75,6.35,6.35,0,0,0,5.43,2.82q.37,0,.75,0l-3.13,7.25,7.12-1.07a7,7,0,0,1,1-.08c.92,0,1.36.23,1.44.34s.25.94-.4,2.44l-2.85,6.61,7.8-1.17a6.63,6.63,0,0,0-.15,4.51A6.46,6.46,0,0,0,115,50l-6.34,4.72,6.7,2.63c1.44.56,2,1.23,2,1.45s-.32,1-1.56,1.93L110,65l7.34,2.88a6.47,6.47,0,0,0-1.17,9l-7.83.91,4.49,5.63c1,1.21,1.1,2.06,1,2.27s-.78.71-2.32.89l-7.15.83,4.92,6.17a6.42,6.42,0,0,0-4.92,3.53,6.87,6.87,0,0,0-.61,3.71L96.5,97.78l1.07,7.12a3.52,3.52,0,0,1-.22,2.44c-.1.12-.44.13-.55.13a5,5,0,0,1-1.93-.49l-6.61-2.85,1.17,7.8a7.42,7.42,0,0,0-2.54-.46,6.18,6.18,0,0,0-4.74,2.19A7.48,7.48,0,0,0,81,115.44l-4.72-6.34-2.63,6.7C73.06,117.35,72.37,117.83,72.19,117.83Z" transform="translate(-1.5 -2)"/><path d="M69.33,19.73a10.64,10.64,0,0,0,3.14.46l.58,0,1.18,10.13,8.38-6.68,1.24,10.64,8-6.36a10,10,0,0,0,3,2.27l-4,9.36L101.35,38l-4.24,9.84,10.08-1.52a10.92,10.92,0,0,0,.3,1.08,10.27,10.27,0,0,0,1.14,2.36l-8.18,6.09,10,3.92-8.59,6.4,9.48,3.72a11.13,11.13,0,0,0-.48,3.71l-10.12,1.18,6.68,8.38L96.74,84.35l6.36,8a10.39,10.39,0,0,0-2.27,3l-9.37-4,1.59,10.59L83.23,97.6l1.52,10.08a10,10,0,0,0-3.45,1.43l-6.09-8.18-3.92,10-6.4-8.59-3.71,9.46a10.64,10.64,0,0,0-3.14-.46l-.58,0L56.28,101.2l-8.38,6.68L46.66,97.24l-8,6.36a10,10,0,0,0-3-2.27l4-9.36L29.17,93.56l4.24-9.84L23.33,85.24a10.91,10.91,0,0,0-.3-1.08,10.27,10.27,0,0,0-1.14-2.36l8.18-6.09-10-3.92,8.59-6.4-9.48-3.72A11.13,11.13,0,0,0,19.69,58l10.12-1.18L23.13,48.4l10.64-1.24-6.36-8a10.39,10.39,0,0,0,2.27-3l9.37,4L37.45,29.66l9.84,4.24L45.77,23.82a10,10,0,0,0,3.45-1.43l6.09,8.18,3.92-10,6.4,8.59,3.71-9.46M67.71,2,63.44,12.86c-1.59-2.13-3.4-3.18-5.12-3.18-2.08,0-4,1.54-5.2,4.55l-7-9.36c1.11,7.35,0,11.17-2.53,11.17-1.95,0-4.76-2.2-8.13-6.73l1.74,11.54A9,9,0,0,0,33.72,20c-3.39,0-5.39,2.72-4.72,7.16L18.28,22.58C24,29.81,24.15,34,19.48,34c-1.94,0-4.7-.72-8.21-2.24l7.28,9.13c-5.85.68-7.64,5-4,9.62L3,51.86c12.17,4.78,11.5,9.93-1.49,11.45l10.86,4.27c-4.73,3.52-4.11,8.16,1.38,10.31l-9.36,7a34.72,34.72,0,0,1,5.09-.43c8.16,0,8.26,4.46-.65,11.09l11.54-1.74c-2.1,4.88,0,8.37,4.71,8.37a11,11,0,0,0,1.64-.13l-4.62,10.72c3.84-3.06,6.82-4.53,8.77-4.53,3.24,0,3.63,4,.4,11.54l9.13-7.28c.44,3.79,2.41,5.87,5,5.87A7.62,7.62,0,0,0,50,116.44L51.36,128c2.29-5.83,4.66-8.71,6.68-8.71,2.2,0,4,3.42,4.77,10.2l4.27-10.86c1.59,2.13,3.4,3.18,5.12,3.18,2.08,0,4-1.54,5.2-4.55l7,9.36c-1.11-7.35,0-11.17,2.53-11.17,1.95,0,4.76,2.2,8.13,6.73l-1.74-11.54a9,9,0,0,0,3.52.81c3.39,0,5.39-2.72,4.72-7.16l10.72,4.62c-5.76-7.23-5.88-11.41-1.2-11.41,1.94,0,4.7.72,8.21,2.24L112,90.63c5.85-.68,7.64-5,4-9.62l11.59-1.35C115.36,74.87,116,69.72,129,68.2l-10.86-4.27c4.73-3.52,4.11-8.16-1.38-10.31l9.36-7a34.73,34.73,0,0,1-5.09.43c-8.16,0-8.26-4.46.65-11.09l-11.54,1.74c2.1-4.88,0-8.37-4.71-8.37a11,11,0,0,0-1.64.13l4.62-10.72c-3.84,3.06-6.82,4.53-8.77,4.53-3.24,0-3.63-4-.4-11.54L90.13,19c-.44-3.79-2.41-5.87-5-5.87a7.62,7.62,0,0,0-4.62,1.91L79.16,3.48c-2.29,5.83-4.66,8.71-6.68,8.71-2.2,0-4-3.42-4.77-10.2Z" transform="translate(-1.5 -2)"/><path class="a" d="M65.06,114.29a48,48,0,1,1,48-48A48.05,48.05,0,0,1,65.06,114.29Z" transform="translate(-1.5 -2)"/><path d="M65.06,20.29a46,46,0,1,1-46,46,46.05,46.05,0,0,1,46-46m0-4a50,50,0,1,0,50,50,50,50,0,0,0-50-50Z" transform="translate(-1.5 -2)"/></svg>