<svg xmlns="http://www.w3.org/2000/svg" viewBox="0 0 127.52 127.52"><defs><style>.a{fill:#fff;} .b{fill:#fff;}</style></defs><title>sun2</title><path class="a" d="M129,68.2l-10.86-4.27c4.73-3.52,4.11-8.16-1.38-10.31l9.36-7C113.21,48.6,111.21,43.8,121.7,36l-11.54,1.74c2.33-5.41-.52-9.12-6.35-8.24l4.62-10.72c-10.23,8.15-14.35,5-9.17-7L90.13,19c-.68-5.85-5-7.64-9.62-4L79.16,3.48C74.38,15.65,69.22,15,67.71,2L63.44,12.86c-3.52-4.73-8.16-4.11-10.31,1.38l-7-9.36C48.1,17.81,43.31,19.8,35.5,9.31l1.74,11.54c-5.41-2.33-9.12.52-8.24,6.35L18.28,22.58c8.15,10.23,5,14.35-7,9.17l7.28,9.13c-5.85.68-7.64,5-4,9.62L3,51.86c12.17,4.78,11.5,9.93-1.49,11.45l10.86,4.27c-4.73,3.52-4.11,8.16,1.38,10.31l-9.36,7c12.93-1.95,14.93,2.85,4.44,10.66l11.54-1.74c-2.33,5.41.52,9.12,6.35,8.24l-4.62,10.72c10.23-8.15,14.35-5,9.17,7l9.13-7.28c.68,5.85,5,7.64,9.62,4L51.36,128c4.78-12.17,9.93-11.5,11.45,1.49l4.27-10.86c3.52,4.73,8.16,4.11,10.31-1.38l7,9.36C82.41,113.7,87.21,111.71,95,122.2l-1.74-11.54c5.41,2.33,9.12-.52,8.24-6.35l10.72,4.62c-8.15-10.23-5-14.35,7-9.17L112,90.63c5.85-.68,7.64-5,4-9.62l11.59-1.35C115.36,74.87,116,69.72,129,68.2Zm-64,48.09a50,50,0,1,1,50-50A50,50,0,0,1,65.06,116.29Z" transform="translate(-1.5 -2)"/><path class='b' d="M67.71,2,63.44,12.86c-1.59-2.13-3.4-3.18-5.12-3.18-2.08,0-4,1.54-5.2,4.55l-7-9.36c1.11,7.35,0,11.17-2.53,11.17-1.95,0-4.76-2.2-8.13-6.73l1.74,11.54A9,9,0,0,0,33.72,20c-3.39,0-5.39,2.72-4.72,7.16L18.28,22.58C24,29.81,24.15,34,19.48,34c-1.94,0-4.7-.72-8.21-2.24l7.28,9.13c-5.85.68-7.64,5-4,9.62L3,51.86c12.17,4.78,11.5,9.93-1.49,11.45l10.86,4.27c-4.73,3.52-4.11,8.16,1.38,10.31l-9.36,7a34.74,34.74,0,0,1,5.09-.43c8.16,0,8.26,4.46-.65,11.09l11.54-1.74c-2.1,4.88,0,8.37,4.71,8.37a11,11,0,0,0,1.64-.13l-4.62,10.72c3.84-3.06,6.82-4.53,8.77-4.53,3.24,0,3.63,4,.4,11.54l9.13-7.28c.44,3.79,2.41,5.87,5,5.87A7.62,7.62,0,0,0,50,116.44L51.36,128c2.29-5.83,4.66-8.71,6.68-8.71,2.2,0,4,3.42,4.77,10.2l4.27-10.86c1.59,2.13,3.4,3.18,5.12,3.18,2.08,0,4-1.54,5.2-4.55l7,9.36c-1.11-7.35,0-11.17,2.53-11.17,1.95,0,4.76,2.2,8.13,6.73l-1.74-11.54a9,9,0,0,0,3.52.81c3.39,0,5.39-2.72,4.72-7.16l10.72,4.62c-5.76-7.23-5.87-11.41-1.2-11.41,1.94,0,4.7.72,8.21,2.24L112,90.63c5.85-.68,7.64-5,4-9.62l11.59-1.35C115.36,74.87,116,69.72,129,68.2l-10.86-4.27c4.73-3.52,4.11-8.16-1.38-10.31l9.36-7a34.74,34.74,0,0,1-5.09.43c-8.16,0-8.26-4.46.65-11.09l-11.54,1.74c2.1-4.88,0-8.37-4.71-8.37a11,11,0,0,0-1.64.13l4.62-10.72c-3.84,3.06-6.82,4.53-8.77,4.53-3.24,0-3.63-4-.4-11.54L90.13,19c-.44-3.79-2.41-5.87-5-5.87a7.62,7.62,0,0,0-4.62,1.91L79.16,3.48c-2.29,5.83-4.66,8.71-6.68,8.71-2.2,0-4-3.42-4.77-10.2ZM65.06,116.29a50,50,0,1,1,50-50,50,50,0,0,1-50,50Z" transform="translate(-1.5 -2)"/></svg>