<svg xmlns="http://www.w3.org/2000/svg" viewBox="0 0 100.02 168.17"><defs><style>.a,.b,.c{stroke:#000;}.a,.b,.c,.d{stroke-miterlimit:10;}.a,.b{stroke-width:2px;}.b,.c,.d{fill:none;}.c{stroke-width:4px;}.d{stroke:#fff;}</style></defs><title>uranus</title><path d="M73.37,135.89A48,48,0,1,1,119.7,100.3,48.16,48.16,0,0,1,73.37,135.89Z" transform="translate(-23.32 -2.75)"/><path d="M73.33,38.33v4h0a45.58,45.58,0,0,1,44.46,57.5,46,46,0,1,1-44.45-58v-4m0,0a50,50,0,1,0,13,1.72,50,50,0,0,0-13-1.72Z" transform="translate(-23.32 -2.75)"/><ellipse class="a" cx="59.68" cy="89.99" rx="21.25" ry="41.07" transform="matrix(0.98, -0.18, 0.18, 0.98, -38.78, 9.69)"/><path class="b" d="M38,61.5c8.06-14.76,27.23-18.24,28.22-17.38" transform="translate(-23.32 -2.75)"/><path class="c" d="M61.48,129.88c6.17,1.53,11.4,2.15,14.82,1.23" transform="translate(-23.32 -2.75)"/><path class="b" d="M86,130.22c-15.35,7.4-33.2-2.23-33.51-3.63" transform="translate(-23.32 -2.75)"/><path d="M54.63,50a1.5,1.5,0,0,0,0-3,1.5,1.5,0,0,0,0,3Z" transform="translate(-23.32 -2.75)"/><ellipse class="b" cx="73.92" cy="88.18" rx="12.46" ry="75.42" transform="translate(-39.67 14.07) rotate(-11.7)"/><ellipse class="b" cx="74.33" cy="86.83" rx="14.01" ry="84.8" transform="translate(-39.39 14.13) rotate(-11.7)"/><path class="d" d="M56.77,6c17.56-.2,47.3,141.58,35.66,158.46" transform="translate(-23.32 -2.75)"/></svg>